<?xml version="1.0" encoding="UTF-8"?>
<svg id="Layer_2" data-name="Layer 2" xmlns="http://www.w3.org/2000/svg" viewBox="0 0 164 37.36">
  <defs>
    <style>
      .cls-1 {
        fill: #fff;
      }
    </style>
  </defs>
  <g id="Layer_1-2" data-name="Layer 1">
    <g>
      <g>
        <polygon class="cls-1" points="143.38 36.91 128.38 36.91 123.14 30.14 130.28 20 143.38 36.91"/>
        <g>
          <polygon class="cls-1" points="131.02 16.1 122.1 28.78 121.19 30.08 116.4 36.91 100.38 36.91 113.67 17.88 113.61 17.8 99.81 0 114.81 0 120.67 7.59 125.92 0 142.29 0 131.02 16.11 131.02 16.1"/>
          <polygon class="cls-1" points="131.02 16.1 122.1 28.78 121.19 30.08 116.4 36.91 100.38 36.91 113.67 17.88 113.61 17.8 99.81 0 114.81 0 120.67 7.59 125.92 0 142.29 0 131.02 16.11 131.02 16.1"/>
        </g>
      </g>
      <g>
        <rect class="cls-1" x="35.07" y="10.93" width="12.66" height="25.98"/>
        <path class="cls-1" d="M29.05,3.44C26.41,1.15,22.62,0,17.67,0H0V36.91H12.66v-11.73h5.02c3.27,0,6.05-.56,8.35-1.67,2.3-1.11,4.04-2.61,5.22-4.51,1.18-1.89,1.77-4.01,1.77-6.34,0-3.85-1.32-6.93-3.96-9.22Zm-12.8,12.62h-3.59v-6.78h3.59c2.62,0,3.93,1.13,3.93,3.39s-1.31,3.39-3.93,3.39Z"/>
        <path class="cls-1" d="M82.8,0l-8.67,22.15L65.24,0h-15.5V36.91h12.66V18.5l6.21,18.4h10.83l6.21-18.4v18.4h12.6V0h-15.46Z"/>
        <path class="cls-1" d="M35.07,0h9.41C46.28,0,47.73,1.45,47.73,3.25v5.86h-12.66V0h0Z"/>
      </g>
      <g>
        <g>
          <path class="cls-1" d="M148.07,31.8v2.25h-.45v-1.46l-.6,1.46h-.34l-.61-1.46v1.46h-.45v-2.25h.51l.72,1.67,.72-1.67h.51Z"/>
          <path class="cls-1" d="M149.89,33.63h-.9l-.15,.43h-.47l.81-2.25h.53l.81,2.25h-.48l-.15-.43Zm-.12-.36l-.33-.94-.33,.94h.65Z"/>
          <path class="cls-1" d="M151.98,34.05l-.5-.88h-.21v.88h-.45v-2.25h.84c.17,0,.32,.03,.44,.09,.12,.06,.21,.14,.28,.25,.06,.1,.09,.22,.09,.35,0,.15-.04,.28-.13,.4-.09,.12-.21,.2-.38,.25l.54,.91h-.52Zm-.71-1.21h.38c.12,0,.21-.03,.27-.09,.06-.06,.09-.14,.09-.25s-.03-.18-.09-.24c-.06-.06-.15-.09-.27-.09h-.38v.66Z"/>
          <path class="cls-1" d="M154.16,34.05l-.82-1v1h-.45v-2.25h.45v1.01l.82-1.01h.54l-.93,1.11,.95,1.13h-.57Z"/>
          <path class="cls-1" d="M155.47,32.17v.56h.76v.36h-.76v.6h.85v.37h-1.31v-2.25h1.31v.37h-.85Z"/>
          <path class="cls-1" d="M158.27,31.8v.36h-.6v1.89h-.45v-1.89h-.6v-.36h1.65Z"/>
          <path class="cls-1" d="M159.05,31.8v2.25h-.45v-2.25h.45Z"/>
          <path class="cls-1" d="M161.42,34.05h-.45l-1.02-1.54v1.54h-.45v-2.25h.45l1.02,1.55v-1.55h.45v2.25Z"/>
          <path class="cls-1" d="M163.43,32.48c-.05-.09-.12-.17-.21-.22-.09-.05-.2-.07-.32-.07-.13,0-.25,.03-.35,.09-.1,.06-.18,.15-.24,.26-.06,.11-.09,.24-.09,.39s.03,.28,.09,.39c.06,.11,.14,.2,.25,.26,.11,.06,.23,.09,.37,.09,.17,0,.31-.05,.42-.14,.11-.09,.18-.22,.22-.38h-.77v-.34h1.22v.39c-.03,.16-.09,.3-.19,.44-.1,.13-.23,.24-.38,.32-.16,.08-.33,.12-.52,.12-.22,0-.41-.05-.59-.15-.17-.1-.31-.23-.41-.41-.1-.17-.15-.37-.15-.59s.05-.42,.15-.59c.1-.17,.24-.31,.41-.41,.18-.1,.37-.15,.58-.15,.25,0,.47,.06,.66,.18,.19,.12,.32,.3,.39,.52h-.52Z"/>
        </g>
        <g>
          <path class="cls-1" d="M147.02,36.92h-.9l-.15,.43h-.47l.81-2.25h.53l.81,2.25h-.48l-.15-.43Zm-.12-.36l-.33-.94-.33,.94h.65Z"/>
          <path class="cls-1" d="M149.52,35.77c-.05-.09-.12-.17-.21-.22-.09-.05-.2-.07-.32-.07-.13,0-.25,.03-.35,.09-.1,.06-.18,.15-.24,.26-.06,.11-.09,.24-.09,.39s.03,.28,.09,.39c.06,.11,.14,.2,.25,.26,.11,.06,.23,.09,.37,.09,.17,0,.31-.05,.42-.14,.11-.09,.18-.22,.22-.38h-.77v-.34h1.22v.39c-.03,.16-.09,.3-.19,.44-.1,.13-.23,.24-.38,.32s-.33,.12-.52,.12c-.22,0-.41-.05-.59-.15-.17-.1-.31-.23-.41-.41-.1-.17-.15-.37-.15-.59s.05-.42,.15-.59c.1-.17,.24-.31,.41-.41,.18-.1,.37-.15,.58-.15,.25,0,.47,.06,.66,.18,.19,.12,.32,.3,.39,.52h-.52Z"/>
          <path class="cls-1" d="M150.88,35.46v.56h.76v.36h-.76v.6h.85v.37h-1.31v-2.25h1.31v.37h-.85Z"/>
          <path class="cls-1" d="M154.07,37.34h-.45l-1.02-1.54v1.54h-.45v-2.25h.45l1.02,1.55v-1.55h.45v2.25Z"/>
          <path class="cls-1" d="M154.55,35.62c.1-.17,.24-.31,.41-.41s.37-.15,.58-.15c.25,0,.47,.06,.66,.19,.19,.13,.32,.31,.4,.53h-.52c-.05-.11-.12-.19-.22-.24-.09-.05-.2-.08-.32-.08-.13,0-.25,.03-.35,.09-.1,.06-.18,.15-.24,.26s-.09,.24-.09,.39,.03,.28,.09,.39,.14,.2,.24,.26c.1,.06,.22,.09,.35,.09,.12,0,.23-.03,.32-.08s.17-.14,.22-.24h.52c-.08,.23-.21,.41-.39,.54-.19,.13-.41,.19-.66,.19-.21,0-.41-.05-.58-.15s-.31-.23-.41-.41c-.1-.17-.15-.37-.15-.59s.05-.42,.15-.59Z"/>
          <path class="cls-1" d="M158.77,35.1l-.76,1.47v.78h-.45v-.78l-.76-1.47h.51l.48,1.03,.48-1.03h.5Z"/>
        </g>
      </g>
    </g>
  </g>
</svg>