<?xml version="1.0" encoding="UTF-8"?>
<svg id="Layer_2" data-name="Layer 2" xmlns="http://www.w3.org/2000/svg" viewBox="0 0 246.96 76.44">
  <defs>
    <style>
      .cls-1 {
        fill: #fff;
      }
    </style>
  </defs>
  <g id="Layer_1-2" data-name="Layer 1">
    <g>
      <g>
        <polygon class="cls-1" points="117.85 42.87 123.71 42.87 124.55 38.39 118.69 38.39 117.85 42.87"/>
        <path class="cls-1" d="M166.32,8.12l-.25,1.34h1.19l.25-1.34h-1.19Zm0,0l-.25,1.34h1.19l.25-1.34h-1.19Zm0,0l-.25,1.34h1.19l.25-1.34h-1.19Zm0,0l-.25,1.34h1.19l.25-1.34h-1.19Zm0,0l-.25,1.34h1.19l.25-1.34h-1.19Zm0,0l-.25,1.34h1.19l.25-1.34h-1.19Zm-35.84,0l-.73,3.89h1.13l.73-3.89h-1.13Zm35.84,0l-.25,1.34h1.19l.25-1.34h-1.19Zm-35.84,0l-.73,3.89h1.13l.73-3.89h-1.13Zm35.84,0l-.25,1.34h1.19l.25-1.34h-1.19Zm-47.72,0l-.25,1.34h1.19l.25-1.34h-1.19Zm11.88,0l-.73,3.89h1.13l.73-3.89h-1.13Zm35.84,0l-.25,1.34h1.19l.25-1.34h-1.19Zm-47.72,0l-.25,1.34h1.19l.25-1.34h-1.19Zm11.88,0l-.73,3.89h1.13l.73-3.89h-1.13Zm35.84,0l-.25,1.34h1.19l.25-1.34h-1.19Zm-65.38-.6l-.25,1.34h1.13l.25-1.34h-1.13Zm17.66,.6l-.25,1.34h1.19l.25-1.34h-1.19Zm11.88,0l-.73,3.89h1.13l.73-3.89h-1.13Zm35.84,0l-.25,1.34h1.19l.25-1.34h-1.19Zm-65.38-.6l-.25,1.34h1.13l.25-1.34h-1.13Zm17.66,.6l-.25,1.34h1.19l.25-1.34h-1.19Zm11.88,0l-.73,3.89h1.13l.73-3.89h-1.13Zm35.84,0l-.25,1.34h1.19l.25-1.34h-1.19Zm-65.38-.6l-.25,1.34h1.13l.25-1.34h-1.13Zm17.66,.6l-.25,1.34h1.19l.25-1.34h-1.19Zm11.88,0l-.73,3.89h1.13l.73-3.89h-1.13Zm35.84,0l-.25,1.34h1.19l.25-1.34h-1.19Zm-65.38-.6l-.25,1.34h1.13l.25-1.34h-1.13Zm17.66,.6l-.25,1.34h1.19l.25-1.34h-1.19Zm11.88,0l-.73,3.89h1.13l.73-3.89h-1.13Zm35.84,0l-.25,1.34h1.19l.25-1.34h-1.19Zm-65.38-.6l-.25,1.34h1.13l.25-1.34h-1.13Zm17.66,.6l-.25,1.34h1.19l.25-1.34h-1.19Zm2.56,58.29l-.77,4.09h1.19l.77-4.09h-1.19Zm9.32-58.29l-.73,3.89h1.13l.73-3.89h-1.13Zm35.84,0l-.25,1.34h1.19l.25-1.34h-1.19Zm-45.16,58.29l-.77,4.09h1.19l.77-4.09h-1.19ZM100.93,7.53l-.25,1.34h1.13l.25-1.34h-1.13Zm17.66,.6l-.25,1.34h1.19l.25-1.34h-1.19Zm11.88,0l-.73,3.89h1.13l.73-3.89h-1.13Zm35.84,0l-.25,1.34h1.19l.25-1.34h-1.19Zm78.98,7.91c-1.42-1.75-3.53-2.76-5.79-2.76h-10.09c-1.09,.04-2.18,.3-3.16,.76-.97-.47-2.04-.73-3.14-.76h-11.33s-.28,0-.28,0c-3.1,.14-5.83,2.03-7.08,4.8h-17.27c-1.53,.07-3,.4-4.39,1-1.1-.66-2.35-1-3.65-1h-7.24l4.04-15.36c.36-1.38-.68-2.72-2.1-2.72H73.78c-1.42,0-2.46,1.35-2.1,2.72l4.04,15.36h-18.82c-.27-.62-.61-1.19-1.04-1.71-1.41-1.74-3.51-2.74-5.76-2.74h-9.61s-.25,0-.25,0c-3.7,.15-6.83,2.79-7.62,6.43l-2.51,13.36h-.02l2.04-10.85c.45-2.17-.11-4.49-1.5-6.21-1.42-1.74-3.51-2.74-5.76-2.74H15.02c-3.7,.16-6.83,2.79-7.61,6.43l-.03,.14L.15,58.67c-.45,2.17,.11,4.49,1.51,6.21,1.42,1.74,3.51,2.73,5.75,2.73h13.71l.52-.02h.06c1.11-.11,2.2-.44,3.19-.96,1.87,1.03,3.79,1.03,4.67,1.03,.37,0,.79,0,1.28-.02,.54-.01,1.15-.03,1.84-.03h9.82c2.97-.13,5.59-1.83,6.91-4.44h7.64c.98-.05,1.94-.27,2.83-.67,.94,.44,1.98,.67,3.03,.67h7.81c.78-.04,1.54-.19,2.28-.45,.8,.3,1.64,.45,2.52,.45h7.56s5.96,0,5.96,0c.75,0,1.5-.11,2.23-.34l1.22-.87,.87,.79c.79,.28,1.63,.42,2.47,.42h3.04l-2.05,10.69c-.26,1.34,.77,2.58,2.13,2.58h53.1c1.36,0,2.39-1.24,2.13-2.58l-2.05-10.7c-.04-.21-.11-.4-.2-.58,1.16,.42,2.4,.62,3.66,.6h17.45l.57-.03,.43-.05,.67-.13,.31-.08,.64-.21,.61-.27,.45-.24c1.44,.7,3.03,1.04,4.65,1.01h15.3c.28,.88,.72,1.71,1.31,2.42,1.42,1.75,3.53,2.75,5.78,2.75h9.87s.25,0,.25,0c1.11-.05,2.21-.32,3.21-.8,1,.5,2.1,.77,3.24,.8h8.02c.22,0,.49,.01,.78,.02,.37,.01,.79,.03,1.24,.03,7.23,0,8.75-5.1,9.04-6.66l7.41-39.48c.46-2.18-.11-4.51-1.51-6.23ZM163.81,5.45v-.02s.01-.02,.01-.02v-.02s.01-.02,.01-.02v-.02s.02-.02,.02-.02v-.02s.02-.01,.02-.01v-.02s.02-.01,.02-.01h.01s.01-.03,.01-.03h.01s.02-.03,.02-.03c.08-.07,.18-.11,.28-.11h5.33c.38-.01,.74,.15,.99,.45,.24,.29,.33,.69,.24,1.06l-.81,4.35c-.18,.85-.92,1.47-1.79,1.5h-2.69l-.41,2.18c-.04,.21-.22,.36-.43,.37h-2.28c-.09,0-.18-.04-.24-.11-.06-.07-.08-.17-.06-.26l1.72-9.18v-.02Zm-4.6,2.03l.38-2.04c.07-.37,.46-.33,.66-.33h2.55c.08,0,.16,.03,.21,.1,.05,.06,.07,.15,.05,.23l-.38,2.04c-.03,.15-.14,.27-.29,.31l-.85,4.55c.13,.04,.21,.18,.17,.31l-.38,2.04c-.07,.37-.46,.33-.66,.33h-2.55c-.08,0-.16-.03-.21-.1-.05-.06-.07-.15-.05-.23l.38-2.04c.03-.15,.14-.27,.29-.31l.85-4.55c-.13-.04-.21-.18-.17-.31Zm-7.09-2.37h2.28c.09,0,.18,.04,.24,.11,.06,.07,.08,.17,.06,.26l-.64,3.38h1.13l.64-3.38c.04-.21,.22-.36,.43-.37h2.28c.09,0,.18,.04,.24,.11,.06,.07,.08,.17,.06,.26l-1.72,9.18c-.04,.21-.22,.36-.43,.36h-2.28c-.09,0-.18-.04-.24-.11-.06-.07-.08-.17-.06-.26l.64-3.38h-1.13l-.64,3.38c-.04,.21-.22,.36-.43,.36h-2.28c-.09,0-.18-.04-.24-.11-.06-.07-.08-.17-.06-.26l1.72-9.18c.04-.21,.22-.36,.43-.37Zm3.46,14.7c-.06,.04-.13,.07-.19,.11-.06-.04-.11-.07-.17-.11h.36Zm-10.23-14.7h5.27c.09,0,.18,.04,.24,.11,.06,.07,.08,.17,.06,.26l-.43,2.28c-.06,.31-.08,.82-.52,.82h-2.28c-.28,0-.32-.22-.28-.45h-1.13l-.13,.7h2.53c.95,0,1.49,.64,1.33,1.5l-.6,3.2c-.18,.85-.92,1.47-1.79,1.5h-5.28c-.09,0-.18-.04-.24-.11-.06-.07-.08-.17-.06-.26l.48-2.58c.04-.21,.22-.36,.43-.37h2.28c.08,0,.16,.03,.22,.09,.06,.06,.09,.13,.09,.22h1.13l.13-.69h-2.63c-.38,.01-.74-.15-.99-.45-.24-.3-.33-.69-.24-1.06l.6-3.19c.18-.85,.92-1.47,1.79-1.5Zm-9.04,0h2.59c.17,0,.3,.13,.33,.29l.32,2.55,.47-2.48c.04-.21,.22-.36,.43-.37h2.28c.09,0,.18,.04,.24,.11,.06,.07,.08,.17,.06,.26l-1.72,9.18c-.09,.47-.68,.36-1.16,.36h-1.83c-.17,0-.3-.13-.33-.29l-.34-2.68-.49,2.61c-.04,.21-.22,.36-.43,.37h-2.28c-.09,0-.18-.04-.24-.11-.06-.07-.08-.17-.06-.26l1.72-9.18c.04-.21,.22-.35,.43-.36Zm-6.77,0h4.14c.38-.01,.74,.15,.99,.45,.24,.29,.33,.69,.24,1.06l-1.29,6.9c-.18,.85-.92,1.47-1.79,1.5h-4.14c-.38,.01-.74-.15-.98-.45-.24-.3-.33-.69-.24-1.06l1.29-6.9c.18-.85,.92-1.47,1.79-1.5Zm-6.12,2.37l.38-2.04c.07-.37,.46-.33,.66-.33h2.55c.08,0,.16,.03,.21,.1,.05,.06,.07,.15,.05,.23l-.38,2.04c-.03,.15-.14,.27-.29,.31l-.85,4.55c.13,.04,.21,.18,.17,.31l-.38,2.04c-.07,.37-.46,.33-.66,.33h-2.55c-.08,0-.16-.03-.21-.1-.05-.06-.07-.15-.05-.23l.38-2.04c.03-.15,.14-.27,.29-.31l.85-4.55c-.13-.04-.21-.18-.17-.31Zm-7.32-2.03v-.02s.01-.02,.01-.02v-.02s.02-.02,.02-.02v-.02s.02-.02,.02-.02v-.02s.02-.01,.02-.01v-.02s.02-.01,.02-.01h.01s.01-.03,.01-.03h.01s.02-.03,.02-.03c.08-.07,.18-.11,.28-.11h5.33c.38-.01,.74,.15,.99,.45,.24,.29,.33,.69,.24,1.06l-.81,4.35c-.18,.85-.92,1.47-1.79,1.5h-2.69l-.41,2.18c-.04,.21-.22,.36-.43,.37h-2.28c-.09,0-.18-.04-.24-.11-.06-.07-.08-.17-.06-.26l1.72-9.18v-.02Zm-9.39-.34h3.25c.17,0,.31,.13,.34,.29l.23,1.43c1.06-1.99,.67-1.72,2.19-1.72h2.28c.09,0,.18,.04,.24,.11,.06,.07,.08,.17,.06,.26l-1.72,9.18c-.04,.21-.22,.36-.43,.36h-2.28c-.09,0-.18-.04-.24-.11-.06-.07-.08-.17-.06-.26l.97-5.19c-.19,.36-.37,.85-.74,.85h-1.85c-.35-.01-.35-.5-.4-.84l-.97,5.19c-.04,.21-.22,.36-.43,.36h-2.28c-.09,0-.18-.04-.24-.11-.06-.07-.08-.17-.06-.26l1.72-9.18c.04-.21,.22-.36,.43-.37Zm-7.95,0h6.42c.09,0,.18,.04,.24,.11,.06,.07,.08,.17,.06,.26l-1.72,9.18c-.04,.21-.22,.35-.43,.36h-2.28c-.09,0-.18-.04-.24-.11-.06-.07-.08-.17-.06-.26l.64-3.38h-1.13l-.64,3.38c-.04,.21-.22,.35-.43,.36h-2.28c-.09,0-.18-.04-.24-.11-.06-.07-.08-.17-.06-.26l1.74-9.25c.04-.19,.22-.32,.42-.29Zm-7.95,0h2.28c.09,0,.18,.04,.24,.11,.06,.07,.08,.17,.06,.26l-.64,3.38h1.13l.64-3.38c.04-.21,.22-.36,.43-.37h2.28c.09,0,.18,.04,.24,.11,.06,.07,.08,.17,.06,.26l-1.72,9.18c-.04,.21-.22,.36-.43,.36h-2.28c-.09,0-.18-.04-.24-.11-.06-.07-.08-.17-.06-.26l.64-3.38h-1.13l-.64,3.38c-.04,.21-.22,.36-.43,.36h-2.28c-.09,0-.18-.04-.24-.11-.06-.07-.08-.17-.06-.26l1.72-9.18c.04-.21,.22-.36,.43-.37Zm-9.79,8.4l1.3-6.9c.18-.85,.92-1.47,1.79-1.5h5.28c.09,0,.18,.04,.24,.11v.02s.02,.01,.02,.01h0s0,.03,0,.03v.02s.01,.01,.01,.01h0s0,.03,0,.03v.02s0,.02,0,.02v.02s0,.04,0,.04v.02s0,.02,0,.02l-.43,2.29c-.04,.19-.09,.57-.47,.57h-2.28c-.13,0-.25-.08-.29-.2h-1.17l-.73,3.89h1.17c.08-.12,.22-.2,.37-.21h2.28c.09,0,.18,.04,.24,.11,.06,.07,.08,.17,.06,.26l-.47,2.48v.02s0,.02,0,.02c0,.01,0,.02-.01,.04h0s0,.03,0,.03h0s0,.02,0,.02c0,.02-.02,.03-.03,.05,0,.01-.01,.02-.02,.03h0s-.09,.09-.09,.09c-.02,.01-.04,.03-.06,.04h0s-.02,.01-.02,.01h0s-.03,.01-.03,.01c-.01,0-.02,0-.04,0h-.02s-.03,0-.03,0h-.02s-5.31,0-5.31,0c-.38,.01-.74-.15-.99-.45-.24-.3-.33-.69-.24-1.06Zm35.48,57.06l-.51,2.71c-.05,.22-.23,.38-.45,.38h-4.95c-.07,0-.13-.02-.19-.06-.54,.06-1.08,.08-1.62,.06-.1,0-.19-.04-.25-.11-.06-.08-.08-.18-.06-.27l1.08-5.76c.05-.22,.23-.38,.45-.38h3.97l.14-.73h-1.19c-.05,.25-.18,.48-.47,.48h-2.4c-.47,0-.28-.54-.22-.86l.45-2.4c.05-.22,.23-.37,.45-.38h5.55c.4-.01,.78,.16,1.04,.47,.25,.31,.35,.72,.25,1.11l-.63,3.36c-.19,.89-.96,1.54-1.88,1.58h-2.77l-.14,.73h1.2c.07-.18,.24-.31,.44-.32h2.4c.1,0,.19,.04,.25,.11,.06,.08,.08,.17,.06,.27Zm6.09,3.1h-4.35c-.4,.01-.78-.16-1.03-.47-.25-.31-.35-.72-.25-1.11l1.36-7.26c.19-.89,.96-1.54,1.88-1.58h4.36c.4-.01,.78,.16,1.04,.47,.25,.31,.34,.72,.25,1.11l-1.36,7.26c-.19,.89-.96,1.54-1.88,1.58Zm10.42-3.1l-.51,2.71c-.05,.22-.23,.38-.45,.38h-4.95c-.07,0-.13-.02-.19-.06-.54,.06-1.08,.08-1.62,.06-.1,0-.19-.04-.25-.11-.06-.08-.09-.18-.06-.27l1.08-5.76c.05-.22,.23-.38,.46-.38h3.97l.14-.73h-1.19c-.05,.25-.18,.48-.47,.48h-2.4c-.47,0-.28-.54-.22-.86l.45-2.4c.05-.22,.23-.37,.46-.38h5.55c.4-.01,.78,.16,1.03,.47,.25,.31,.35,.72,.25,1.11l-.63,3.36c-.19,.89-.96,1.54-1.88,1.58h-2.77l-.14,.73h1.2c.07-.18,.24-.31,.44-.32h2.4c.1,0,.19,.04,.25,.11,.06,.08,.08,.17,.06,.27Zm9.56-6.94l-.51,2.71c-.05,.22-.23,.38-.45,.38h-2.4c-.09,0-.17-.03-.23-.09-.06-.06-.09-.14-.09-.23h-1.2l-.14,.73h2.77c.4-.01,.78,.16,1.04,.47,.25,.31,.34,.72,.25,1.11l-.63,3.36c-.19,.89-.96,1.54-1.88,1.58h-4.35c-.4,.01-.78-.16-1.04-.47-.25-.31-.35-.72-.25-1.11l.73-3.89,.63-3.37c.19-.89,.97-1.54,1.88-1.58h5.55c.1,0,.19,.04,.25,.11,.06,.08,.08,.17,.06,.27Zm6.86-2.23s.08-.04,.11-.07c.03,.02,.07,.04,.1,.07h-.21ZM244.19,21.73l-7.41,39.52c-.31,1.68-1.57,4.49-6.42,4.49-.4,0-.79-.01-1.15-.03-.32-.01-.62-.02-.87-.02h-7.97c-.91-.03-1.8-.3-2.56-.79l-.7-.45-.71,.43c-.79,.48-1.7,.76-2.63,.8h-10.02c-1.45,0-2.8-.64-3.71-1.76-.53-.65-.88-1.44-1.01-2.28l-.18-1.13h-17.54c-1.41,.03-2.79-.33-3.99-1.04l-.76-.45-.71,.53-.18,.13-.4,.24-.52,.24-.43,.15-.48,.12-.41,.06-.44,.02h-17.46c-1.88,.04-3.69-.61-5.09-1.83l-.8-.7-.86,.63c-1.58,1.16-3.44,1.81-5.39,1.89h-.17s-17.47,0-17.47,0l-.46-.03-.23-.03-.4-.08c-.2-.05-.38-.11-.56-.18l-.64-.27-.52,.22-.48,.17-.48,.12-.41,.06-.44,.02h-17.46c-.06,0-.12,0-.17,0-2.28,0-4.41-1.01-5.84-2.78-1.45-1.78-2.01-4.17-1.5-6.41l2.27-12.1h-4.25l-.95,5.07c-.12,.61-.68,2.67-2.99,3.5l-.72,.26-1.57,8.37-.02,.11c-.48,2.25-2.42,3.88-4.71,3.98h-7.71c-.68,0-1.33-.14-1.93-.43l-.56-.26-.56,.25c-.59,.26-1.21,.41-1.84,.44h-7.71c-.82,0-1.63-.22-2.32-.64l-.67-.41-.68,.39c-.69,.4-1.48,.62-2.29,.66h-7.71c-.17,0-.35,0-.53-.03l-1.05-.13-.36,1c-.76,2.09-2.68,3.5-4.89,3.6h-9.73c-.72,0-1.35,.02-1.9,.03-.46,.01-.86,.02-1.21,.02-.81,0-2.48,0-3.87-1l-.75-.54-.77,.51c-.8,.54-1.74,.87-2.7,.97l-.4,.02H7.42c-1.43,0-2.78-.64-3.68-1.75-.9-1.11-1.26-2.6-.97-3.99L9.99,20.72l.02-.11c.52-2.43,2.62-4.2,5.1-4.31h9.77c1.44,0,2.78,.64,3.69,1.75,.9,1.1,1.25,2.59,.96,3.99l-2.64,14.06h5.44l2.88-15.38,.02-.11c.52-2.43,2.62-4.2,5.1-4.31h9.76c1.44,0,2.78,.64,3.69,1.75,.41,.5,.71,1.08,.88,1.72l.27,.98h21.7c.68,0,1.33,.15,1.93,.43l.56,.26,.56-.25c.61-.27,1.25-.42,1.88-.44h21.38s.45,.02,.45,.02l.41,.06,.28,.06c.14,.04,.27,.08,.42,.13l.26,.11,.42,.22,.58,.34,.61-.25c1.04-.42,2.14-.66,3.26-.7h.17s39.54,0,39.54,0c1.87-.04,3.69,.61,5.09,1.83l.8,.7,.86-.63c1.58-1.16,3.44-1.81,5.39-1.89h.17s17.45,0,17.45,0c.99,0,1.93,.32,2.72,.92l.67,.51,.75-.38c1.25-.64,2.6-.99,4.01-1.05h.17s17.45,0,17.45,0c.11,0,.22,0,.36,.02l1.07,.08,.31-1.02c.68-2.21,2.69-3.77,5-3.88h11.32s.12,0,.12,0c.88,.03,1.74,.28,2.48,.74l.68,.42,.69-.41c.79-.46,1.68-.72,2.57-.75h10.01c1.45,0,2.8,.64,3.72,1.77,.69,.85,1.07,1.94,1.07,3.03,0,.33-.03,.66-.1,.98Zm-76.69-13.6h-1.19l-.25,1.34h1.19l.25-1.34Zm-30.6,62.38h1.19l.14-.73h-1.19l-.14,.73Zm-5.3-62.38h-1.13l-.73,3.89h1.13l.73-3.89Zm-11.21,62.38h1.19l.77-4.09h-1.19l-.77,4.09Zm-.61-62.38h-1.19l-.25,1.34h1.19l.25-1.34Zm-17.72-.6h-1.13l-.25,1.34h1.13l.25-1.34Zm64.25,.6l-.25,1.34h1.19l.25-1.34h-1.19Zm-35.84,0l-.73,3.89h1.13l.73-3.89h-1.13Zm-11.88,0l-.25,1.34h1.19l.25-1.34h-1.19Zm-17.66-.6l-.25,1.34h1.13l.25-1.34h-1.13Zm20.22,58.89l-.77,4.09h1.19l.77-4.09h-1.19ZM166.32,8.12l-.25,1.34h1.19l.25-1.34h-1.19Zm-35.84,0l-.73,3.89h1.13l.73-3.89h-1.13Zm-9.32,58.29l-.77,4.09h1.19l.77-4.09h-1.19Zm-2.56-58.29l-.25,1.34h1.19l.25-1.34h-1.19Zm-17.66-.6l-.25,1.34h1.13l.25-1.34h-1.13Zm65.38,.6l-.25,1.34h1.19l.25-1.34h-1.19Zm-35.84,0l-.73,3.89h1.13l.73-3.89h-1.13Zm-11.88,0l-.25,1.34h1.19l.25-1.34h-1.19Zm-17.66-.6l-.25,1.34h1.13l.25-1.34h-1.13Zm65.38,.6l-.25,1.34h1.19l.25-1.34h-1.19Zm-35.84,0l-.73,3.89h1.13l.73-3.89h-1.13Zm-11.88,0l-.25,1.34h1.19l.25-1.34h-1.19Zm-17.66-.6l-.25,1.34h1.13l.25-1.34h-1.13Zm65.38,.6l-.25,1.34h1.19l.25-1.34h-1.19Zm-35.84,0l-.73,3.89h1.13l.73-3.89h-1.13Zm-11.88,0l-.25,1.34h1.19l.25-1.34h-1.19Zm-17.66-.6l-.25,1.34h1.13l.25-1.34h-1.13Zm65.38,.6l-.25,1.34h1.19l.25-1.34h-1.19Zm-35.84,0l-.73,3.89h1.13l.73-3.89h-1.13Zm-11.88,0l-.25,1.34h1.19l.25-1.34h-1.19Zm-17.66-.6l-.25,1.34h1.13l.25-1.34h-1.13Zm65.38,.6l-.25,1.34h1.19l.25-1.34h-1.19Zm-35.84,0l-.73,3.89h1.13l.73-3.89h-1.13Zm-11.88,0l-.25,1.34h1.19l.25-1.34h-1.19Zm47.72,0l-.25,1.34h1.19l.25-1.34h-1.19Zm-35.84,0l-.73,3.89h1.13l.73-3.89h-1.13Zm-11.88,0l-.25,1.34h1.19l.25-1.34h-1.19Zm47.72,0l-.25,1.34h1.19l.25-1.34h-1.19Zm-35.84,0l-.73,3.89h1.13l.73-3.89h-1.13Zm35.84,0l-.25,1.34h1.19l.25-1.34h-1.19Zm-35.84,0l-.73,3.89h1.13l.73-3.89h-1.13Zm35.84,0l-.25,1.34h1.19l.25-1.34h-1.19Zm0,0l-.25,1.34h1.19l.25-1.34h-1.19Zm0,0l-.25,1.34h1.19l.25-1.34h-1.19Zm0,0l-.25,1.34h1.19l.25-1.34h-1.19Z"/>
        <path class="cls-1" d="M195.46,42.87h5.27c.11,0,.22,0,.33,.01l1.19,.08,.86-4.58h-6.8l-.84,4.48Z"/>
        <polygon class="cls-1" points="169.7 42.87 175.38 42.87 176.22 38.39 170.54 38.39 169.7 42.87"/>
      </g>
      <path class="cls-1" d="M55.42,24.27h21.2c.3-.01,.6,.12,.79,.36,.19,.24,.26,.55,.19,.85l-5.69,30.32c-.15,.68-.74,1.18-1.43,1.21h-7.53c-.3,.01-.6-.12-.79-.36-.19-.24-.26-.55-.19-.85l2.1-11.18h-3.74l-2.1,11.18c-.15,.68-.74,1.18-1.43,1.21h-7.52c-.3,.01-.6-.12-.79-.36-.19-.24-.26-.55-.19-.85l5.73-30.56c.14-.64,.74-1.06,1.39-.97h0Zm7.24,7.97l-.83,4.42h3.74l.83-4.42h-3.74Z"/>
      <path class="cls-1" d="M81.7,24.27h20.04s.06,.02,.06,.02h.03s.06,.02,.06,.02c.04,0,.07,.02,.11,.03l.07,.03h.03s.05,.04,.05,.04h.02s.07,.07,.11,.09l.06,.05,.05,.06c.19,.24,.26,.55,.19,.85l-1.7,9.03c-.15,.68-.74,1.18-1.43,1.21h-6.22c-.92,0-1.07-.72-.92-1.5h-3.73l-.46,2.45c1.33,0,3.05-.31,2.82,.97l-1.13,6.03c-.24,1.27-1.85,.97-3.18,.97l-2.1,11.18c-.15,.68-.74,1.18-1.43,1.21h-7.53c-.3,.01-.6-.12-.79-.36-.19-.24-.26-.55-.19-.85l5.69-30.35v-.06s.03-.06,.03-.06l.02-.06,.02-.06,.03-.06,.03-.06,.03-.06,.03-.05,.03-.05,.04-.05,.04-.05,.04-.05,.04-.05,.05-.04,.07-.06c.26-.22,.58-.35,.92-.36Z"/>
      <path class="cls-1" d="M128.02,24.63c.19,.24,.26,.55,.19,.84l-1.41,7.53c-.12,.65-.3,1.88-1.56,1.88h-7.53c-.43,.02-.83-.26-.95-.67h-3.86l-.46,2.45c1.33,0,3.05-.3,2.82,.97l-1.13,6.03c-.24,1.27-1.85,.97-3.18,.97l-.46,2.45h3.86c.27-.41,.72-.66,1.21-.67h7.53c.3-.01,.6,.12,.79,.36s.26,.55,.19,.85l-1.54,8.2c-.07,.33-.25,.63-.51,.85l-.08,.06-.05,.04-.05,.03-.05,.03-.06,.03-.06,.03-.06,.03-.06,.02-.06,.02-.06,.02-.06,.02h-.06s-.06,.02-.06,.02h-.06s-17.53,0-17.53,0c-1.26,.04-2.46-.5-3.25-1.48-.79-.98-1.08-2.27-.78-3.49l4.28-22.79c.6-2.81,3.03-4.85,5.9-4.97h17.44c.3,0,.59,.12,.79,.36Z"/>
      <path class="cls-1" d="M131.95,24.27h17.44c1.26-.04,2.46,.5,3.25,1.48,.79,.98,1.08,2.27,.78,3.49l-4.28,22.79c-.6,2.81-3.03,4.85-5.9,4.97h-17.58s-.06-.02-.06-.02h-.03s-.05-.02-.05-.02c-.04,0-.07-.02-.11-.03l-.08-.03h-.02s-.05-.04-.05-.04h-.02s-.07-.07-.11-.1l-.06-.05-.05-.06-.16-.3-.05-.28v-.03l5.78-30.8v-.03s.15-.25,.15-.25l.02-.03,.04-.05,.02-.03,.15-.16,.02-.02,.97-.4h0Zm8.19,22.79l2.41-12.85h-3.73l-2.41,12.85h3.73Z"/>
      <path class="cls-1" d="M179.87,24.63c.19,.24,.26,.55,.19,.84l-1.41,7.53c-.12,.65-.3,1.88-1.56,1.88h-7.53c-.43,.02-.83-.26-.95-.67h-3.86l-.46,2.45c1.33,0,3.05-.3,2.82,.97l-1.13,6.03c-.24,1.27-1.85,.97-3.18,.97l-.46,2.45h3.86c.27-.41,.72-.66,1.21-.67h7.53c.3-.01,.6,.12,.79,.36s.26,.55,.19,.85l-1.54,8.2c-.07,.33-.25,.63-.51,.85l-.08,.06-.05,.04-.05,.03-.05,.03-.06,.03-.06,.03-.06,.03-.06,.02-.06,.02-.06,.02-.06,.02h-.06s-.06,.02-.06,.02h-.06s-17.53,0-17.53,0c-1.26,.04-2.46-.5-3.25-1.48s-1.08-2.27-.78-3.49l4.28-22.79c.6-2.81,3.03-4.85,5.9-4.97h17.44c.3,0,.59,.12,.79,.36Z"/>
      <path class="cls-1" d="M211.8,19.46h11.17c.72,.02,1.32,.55,1.42,1.26l1.38,11.01,2-10.7c.19-.89,.97-1.54,1.88-1.58h9.82c.4-.01,.78,.16,1.03,.47,.25,.31,.34,.72,.25,1.1l-7.42,39.57c-.38,2.05-2.94,1.57-4.99,1.57h-7.87c-.72-.02-1.32-.55-1.42-1.26l-1.45-11.56-2.11,11.25c-.19,.89-.96,1.54-1.87,1.57h-9.82c-.4,.01-.78-.16-1.03-.47-.25-.31-.34-.72-.25-1.1l7.42-39.57c.19-.88,.95-1.53,1.86-1.57Z"/>
      <path class="cls-1" d="M6.46,60.98c-.25-.3-.34-.7-.24-1.08L13.45,21.35c.19-.87,.93-1.5,1.82-1.53h9.57c.39-.01,.76,.16,1,.46,.24,.3,.33,.7,.24,1.08l-4.09,21.82c.78-1.44,1.52-3.5,3.03-3.55h7.77c1.59,0,1.55,2.04,1.8,3.56l4.09-21.82c.19-.87,.93-1.5,1.82-1.53h9.57c.39-.01,.76,.16,1,.46,.24,.3,.33,.7,.24,1.08l-7.23,38.55c-.19,.87-.94,1.5-1.82,1.53h-9.57c-6.39,0-5.13,1.11-6.47-7.24l-3.21,6.01c-.39,.7-1.09,1.16-1.88,1.23H7.46c-.39,.01-.76-.15-1.01-.46Z"/>
      <g>
        <path class="cls-1" d="M6.46,60.98c-.25-.3-.34-.7-.24-1.08L13.45,21.35c.19-.87,.93-1.5,1.82-1.53h9.57c.39-.01,.76,.16,1,.46,.24,.3,.33,.7,.24,1.08l-4.09,21.82c.78-1.44,1.52-3.5,3.03-3.55h7.77c1.59,0,1.55,2.04,1.8,3.56l4.09-21.82c.19-.87,.93-1.5,1.82-1.53h9.57c.39-.01,.76,.16,1,.46,.24,.3,.33,.7,.24,1.08l-7.23,38.55c-.19,.87-.94,1.5-1.82,1.53h-9.57c-6.39,0-5.13,1.11-6.47-7.24l-3.21,6.01c-.39,.7-1.09,1.16-1.88,1.23H7.46c-.39,.01-.76-.15-1.01-.46Z"/>
        <path class="cls-1" d="M55.42,24.27h21.2c.3-.01,.6,.12,.79,.36,.19,.24,.26,.55,.19,.85l-5.69,30.32c-.15,.68-.74,1.18-1.43,1.21h-7.53c-.3,.01-.6-.12-.79-.36-.19-.24-.26-.55-.19-.85l2.1-11.18h-3.74l-2.1,11.18c-.15,.68-.74,1.18-1.43,1.21h-7.52c-.3,.01-.6-.12-.79-.36-.19-.24-.26-.55-.19-.85l5.73-30.56c.14-.64,.74-1.06,1.39-.97h0Zm7.24,7.97l-.83,4.42h3.74l.83-4.42h-3.74Z"/>
        <path class="cls-1" d="M81.7,24.27h20.04s.06,.02,.06,.02h.03s.06,.02,.06,.02c.04,0,.07,.02,.11,.03l.07,.03h.03s.05,.04,.05,.04h.02s.07,.07,.11,.09l.06,.05,.05,.06c.19,.24,.26,.55,.19,.85l-1.7,9.03c-.15,.68-.74,1.18-1.43,1.21h-6.22c-.92,0-1.07-.72-.92-1.5h-3.73l-.46,2.45c1.33,0,3.05-.31,2.82,.97l-1.13,6.03c-.24,1.27-1.85,.97-3.18,.97l-2.1,11.18c-.15,.68-.74,1.18-1.43,1.21h-7.53c-.3,.01-.6-.12-.79-.36-.19-.24-.26-.55-.19-.85l5.69-30.35v-.06s.03-.06,.03-.06l.02-.06,.02-.06,.03-.06,.03-.06,.03-.06,.03-.05,.03-.05,.04-.05,.04-.05,.04-.05,.04-.05,.05-.04,.07-.06c.26-.22,.58-.35,.92-.36Z"/>
        <path class="cls-1" d="M128.02,24.63c.19,.24,.26,.55,.19,.84l-1.41,7.53c-.12,.65-.3,1.88-1.56,1.88h-7.53c-.43,.02-.83-.26-.95-.67h-3.86l-.46,2.45c1.33,0,3.05-.3,2.82,.97l-1.13,6.03c-.24,1.27-1.85,.97-3.18,.97l-.46,2.45h3.86c.27-.41,.72-.66,1.21-.67h7.53c.3-.01,.6,.12,.79,.36s.26,.55,.19,.85l-1.54,8.2c-.07,.33-.25,.63-.51,.85l-.08,.06-.05,.04-.05,.03-.05,.03-.06,.03-.06,.03-.06,.03-.06,.02-.06,.02-.06,.02-.06,.02h-.06s-.06,.02-.06,.02h-.06s-17.53,0-17.53,0c-1.26,.04-2.46-.5-3.25-1.48-.79-.98-1.08-2.27-.78-3.49l4.28-22.79c.6-2.81,3.03-4.85,5.9-4.97h17.44c.3,0,.59,.12,.79,.36Z"/>
        <path class="cls-1" d="M131.95,24.27h17.44c1.26-.04,2.46,.5,3.25,1.48,.79,.98,1.08,2.27,.78,3.49l-4.28,22.79c-.6,2.81-3.03,4.85-5.9,4.97h-17.58s-.06-.02-.06-.02h-.03s-.05-.02-.05-.02c-.04,0-.07-.02-.11-.03l-.08-.03h-.02s-.05-.04-.05-.04h-.02s-.07-.07-.11-.1l-.06-.05-.05-.06-.16-.3-.05-.28v-.03l5.78-30.8v-.03s.15-.25,.15-.25l.02-.03,.04-.05,.02-.03,.15-.16,.02-.02,.97-.4h0Zm8.19,22.79l2.41-12.85h-3.73l-2.41,12.85h3.73Z"/>
        <path class="cls-1" d="M179.87,24.63c.19,.24,.26,.55,.19,.84l-1.41,7.53c-.12,.65-.3,1.88-1.56,1.88h-7.53c-.43,.02-.83-.26-.95-.67h-3.86l-.46,2.45c1.33,0,3.05-.3,2.82,.97l-1.13,6.03c-.24,1.27-1.85,.97-3.18,.97l-.46,2.45h3.86c.27-.41,.72-.66,1.21-.67h7.53c.3-.01,.6,.12,.79,.36s.26,.55,.19,.85l-1.54,8.2c-.07,.33-.25,.63-.51,.85l-.08,.06-.05,.04-.05,.03-.05,.03-.06,.03-.06,.03-.06,.03-.06,.02-.06,.02-.06,.02-.06,.02h-.06s-.06,.02-.06,.02h-.06s-17.53,0-17.53,0c-1.26,.04-2.46-.5-3.25-1.48s-1.08-2.27-.78-3.49l4.28-22.79c.6-2.81,3.03-4.85,5.9-4.97h17.44c.3,0,.59,.12,.79,.36Z"/>
        <path class="cls-1" d="M211.8,19.46h11.17c.72,.02,1.32,.55,1.42,1.26l1.38,11.01,2-10.7c.19-.89,.97-1.54,1.88-1.58h9.82c.4-.01,.78,.16,1.03,.47,.25,.31,.34,.72,.25,1.1l-7.42,39.57c-.38,2.05-2.94,1.57-4.99,1.57h-7.87c-.72-.02-1.32-.55-1.42-1.26l-1.45-11.56-2.11,11.25c-.19,.89-.96,1.54-1.87,1.57h-9.82c-.4,.01-.78-.16-1.03-.47-.25-.31-.34-.72-.25-1.1l7.42-39.57c.19-.88,.95-1.53,1.86-1.57Z"/>
      </g>
      <path class="cls-1" d="M205.64,24.63c.19,.24,.26,.55,.19,.84l-1.41,7.53c-.12,.65-.3,1.88-1.56,1.88h-7.53c-.43,.02-.83-.26-.95-.67h-3.86l-.46,2.45c1.33,0,3.05-.3,2.82,.97l-1.13,6.03c-.24,1.27-1.85,.97-3.18,.97l-.46,2.45h3.86c.27-.41,.72-.66,1.21-.67h7.53c.3-.01,.6,.12,.79,.36s.26,.55,.19,.85l-1.54,8.2c-.07,.33-.25,.63-.51,.85l-.08,.06-.05,.04-.05,.03-.05,.03-.06,.03-.06,.03-.06,.03-.06,.02-.06,.02-.06,.02-.06,.02h-.06s-.06,.02-.06,.02h-.06s-17.53,0-17.53,0c-1.26,.04-2.46-.5-3.25-1.48s-1.08-2.27-.78-3.49l4.28-22.79c.6-2.81,3.03-4.85,5.9-4.97h17.44c.3,0,.59,.12,.79,.36Z"/>
    </g>
  </g>
</svg>