<?xml version="1.0" encoding="UTF-8"?>
<svg id="Layer_2" data-name="Layer 2" xmlns="http://www.w3.org/2000/svg" viewBox="0 0 1872.43 1158.3">
  <defs>
    <style>
      .cls-1 {
        fill: #c72a81;
      }
    </style>
  </defs>
  <g id="Layer_1-2" data-name="Layer 1">
    <g>
      <path class="cls-1" d="M1500.21,1158.3c-.36-1.22-.43-2.64-1.12-3.62-6.62-9.33-13.33-18.59-20.03-27.87-8.66-12.01-17.37-23.98-25.99-36.02-9.42-13.17-18.82-26.35-28.12-39.6-7.4-10.55-14.44-21.37-21.98-31.82-10.7-14.83-21.88-29.3-32.55-44.15-12.18-16.97-23.91-34.26-36.04-51.26-7.75-10.86-16-21.37-23.75-32.22-4.26-5.97-7.85-12.41-11.96-18.49-4.36-6.45-8.94-12.75-13.51-19.05-7.5-10.36-15.13-20.63-22.58-31.02-12.57-17.55-25.05-35.17-37.55-52.77-.57-.8-.92-1.74-1.37-2.62,.43-.45,.85-.9,1.28-1.35,105.24,73.52,210.47,147.05,316.33,221.01,.47-2.03,.98-2.98,.82-3.8-1.73-8.89-3.61-17.75-5.36-26.63-.83-4.2-1.38-8.45-2.18-12.65-2.64-13.8-5.28-27.59-8.02-41.37-2.25-11.37-4.7-22.7-6.93-34.08-2.13-10.85-4.04-21.74-6.12-32.6-2.52-13.12-5.11-26.23-7.68-39.34-2.5-12.77-4.97-25.54-7.5-38.31-1.57-7.9-3.29-15.78-4.76-23.7-.2-1.08,.4-2.49,1.06-3.44,.25-.36,1.91-.17,2.62,.27,12.06,7.41,24.06,14.93,36.1,22.37,14.91,9.21,29.77,18.5,44.81,27.49,17.31,10.35,34.9,20.23,52.18,30.62,14.68,8.83,29.01,18.24,43.65,27.12,16.6,10.06,33.44,19.72,50.05,29.75,13.67,8.25,27.06,16.95,40.76,25.16,13.11,7.85,26.57,15.11,39.65,23,11.17,6.74,21.93,14.17,33.06,20.99,9.73,5.97,19.72,11.51,29.59,17.27,.96,.56,1.83,1.28,3.64,2.57,.25-2.3,.58-3.94,.58-5.57,.03-44.4,.02-88.79,.03-133.19,0-10.42-.28-10.55-10.27-13.02-6.17-1.53-12.17-3.78-18.24-5.71-7.79-2.48-15.61-4.87-23.36-7.48-6.3-2.12-12.48-4.61-18.79-6.73-6.52-2.19-13.16-4.01-19.68-6.2-14.68-4.93-29.28-10.12-43.99-14.96-9.69-3.19-19.59-5.74-29.28-8.94-8.79-2.9-17.38-6.4-26.13-9.42-6.2-2.14-12.57-3.79-18.79-5.87-9-3-17.9-6.29-26.9-9.28-9.18-3.05-18.46-5.8-27.65-8.84-11.78-3.89-23.5-7.99-35.28-11.89-2.68-.89-5.5-1.36-8.26-2.02,.07-.6,.14-1.21,.21-1.81,5.13,.29,10.28,.45,15.4,.93,2.61,.24,5.14,1.28,7.75,1.56,18.77,2.03,37.57,3.74,56.32,5.98,16.54,1.98,32.99,4.75,49.54,6.74,19.06,2.3,38.19,4.06,57.28,6.18,14.27,1.59,28.51,3.39,42.76,5.1,21.84,2.61,43.68,5.2,65.52,7.87,1.78,.22,3.49,.96,5.25,1.41,5.24,1.34,6.56,.33,6.56-5.11,.02-20.79,.01-41.57,.02-62.36,0-2.13,0-4.26,0-6.85-1.99-.14-3.58-.37-5.17-.36-19.29,.12-38.58,.13-57.87,.46-34.37,.6-68.74,1.44-103.1,2.1-47.5,.92-95.01,1.78-142.51,2.64-56.99,1.03-113.98,2-170.96,3.09-7.1,.14-14.19,.9-22.14,1.44,.44-1.71,.34-3.57,1.22-4.44,6.64-6.54,13.51-12.85,20.25-19.3,10.87-10.4,21.64-20.9,32.54-31.27,9.21-8.78,18.61-17.36,27.79-26.18,5.27-5.07,10.21-10.48,15.42-15.62,6.11-6.02,12.41-11.84,18.52-17.85,5.49-5.4,10.74-11.05,16.29-16.39,9.87-9.5,19.92-18.81,29.83-28.27,14.96-14.27,29.83-28.64,44.8-42.89,8.24-7.84,16.6-15.54,24.91-23.32,1.78-1.66,4.08-3.07,5.12-5.12,.87-1.71,1.16-4.92,.14-6.2-7.22-9.01-14.9-17.66-22.35-26.49-12.73-15.09-25.76-29.95-37.96-45.45-6.9-8.77-14.86-13.56-26.11-14.85-14.19-1.63-28.18-5.01-42.26-7.64-14.06-2.63-28.11-5.34-42.19-7.88-11.5-2.07-23.06-3.85-34.56-5.92-14.25-2.57-28.46-5.31-42.69-7.99-8.6-1.62-17.18-3.28-25.78-4.88-14.35-2.68-28.74-5.21-43.06-8.04-10.46-2.07-20.8-4.79-31.28-6.75-12.28-2.3-24.68-3.96-36.99-6.14-5.01-.89-9.9-2.42-14.93-4.67,3.64,0,7.3-.16,10.93,.03,18.55,.93,37.09,1.97,55.63,2.92,21.53,1.1,43.06,2.11,64.59,3.21,12.08,.62,24.15,1.39,36.23,2,18.73,.94,37.46,1.77,56.19,2.7,13.55,.68,27.1,1.48,40.65,2.17,19.87,1.01,39.74,1.95,59.61,2.96,18.86,.96,37.73,1.72,56.54,3.21,3.45,.27,7.27,3.03,9.87,5.67,8.47,8.64,16.39,17.83,24.65,26.69,11.74,12.6,23.54,25.14,35.42,37.61,8.46,8.88,17.21,17.49,25.59,26.45,4.52,4.83,8.41,10.24,12.83,15.17,3.36,3.75,7.14,7.13,10.66,10.74,2.6,2.67,3.03,4.75-.5,7.62-11.77,9.57-23.08,19.71-34.77,29.38-10.58,8.74-21.49,17.08-32.16,25.72-7.51,6.08-14.8,12.41-22.29,18.52-15.17,12.38-30.46,24.61-45.58,37.04-6.03,4.96-11.66,10.4-17.65,15.42-9.21,7.72-18.55,15.3-27.89,22.87-3.42,2.77-7.06,5.27-10.46,8.07-.74,.61-1.34,2.07-1.13,2.93,.18,.76,1.52,1.64,2.44,1.77,7.69,1.1,15.41,1.98,23.1,3.06,9.79,1.38,19.54,3.02,29.34,4.31,16.56,2.18,33.17,4,49.72,6.29,15.03,2.09,29.99,4.74,45.01,6.9,15.04,2.16,30.14,3.89,45.18,6.04,13.06,1.87,26.07,4.1,39.11,6.09,2.95,.45,5.96,.5,8.93,.83,11.19,1.23,22.39,2.38,33.56,3.78,12.78,1.6,25.76,2.49,38.23,5.47,10.72,2.57,21.43,3.69,32.27,4.61,.33,.03,.67,.04,.99,.09q10.25,1.58,10.25-8.73c0-19.94,0-39.88,0-61.21-45.8-6.93-91.54-13.86-137.29-20.79-.01-.29-.03-.58-.04-.87,5.05-.7,10.09-1.95,15.14-2,31.09-.35,62.19-.4,93.28-.63,7.81-.06,15.62-.66,23.42-.51,4.47,.09,5.61-1.47,5.59-5.78-.16-32.59-.08-65.18-.09-97.77,0-27.44-.13-54.87,.11-82.31,.04-4.83-1.71-8.1-5.03-11.11-9.94-9.02-19.85-18.07-29.72-27.16-3.82-3.51-7.59-7.09-11.24-10.76-.79-.8-1.63-2.41-1.33-3.21,.34-.9,1.9-1.61,3.05-1.87,11.83-2.64,23.68-5.17,35.53-7.73,2.7-.58,6.94-.32,7.78-1.89,1.41-2.63,.81-6.42,.82-9.73,.04-29.93,.02-59.85,.02-91-15.16,3.33-29.28,9.04-43.78,13.3-.27-.59-.54-1.18-.81-1.77,6.09-3.74,12.21-7.44,18.26-11.24,8-5.02,16-10.02,23.85-15.27,1.26-.84,2.4-2.91,2.41-4.41,.13-24.77,.07-49.55,.04-74.33,0-.63-.26-1.26-.64-2.96-5.79,1.52-11.46,2.83-17.02,4.5-13.14,3.95-26.26,7.95-39.33,12.15-11.41,3.67-22.68,7.77-34.1,11.41-7.65,2.44-15.48,4.31-23.17,6.64-6.08,1.84-12.04,4.08-18.11,5.97-7.68,2.39-15.43,4.55-23.12,6.91-5.28,1.62-10.49,3.45-15.75,5.13-7.96,2.55-15.93,5.07-23.91,7.55-4.07,1.27-4.78,2.89-2.4,6.61,7.98,12.45,16.11,24.81,24.07,37.28,5.18,8.11,10.05,16.42,15.26,24.52,10.71,16.63,21.63,33.13,32.31,49.78,8.18,12.76,16.07,25.71,24.18,38.52,5.83,9.2,11.94,18.21,17.68,27.46,7.54,12.15,14.75,24.5,22.29,36.65,6.1,9.83,12.52,19.47,18.72,29.24,5.35,8.43,10.54,16.98,15.91,25.4,6.25,9.79,12.62,19.51,18.92,29.27,.16,.25,.08,.65,.19,1.77-4.08,1.46-8.33,3.01-12.61,4.51-11.03,3.88-22.03,7.85-33.11,11.58-10.44,3.52-21.02,6.61-31.42,10.24-9.11,3.18-18.03,6.9-27.08,10.24-4.91,1.81-9.93,3.32-14.88,5-7.76,2.64-15.51,5.29-23.25,7.97-3.4,1.18-6.75,2.55-10.16,3.71-6.23,2.11-12.54,3.98-18.72,6.2-10.41,3.75-20.72,7.81-31.14,11.52-4.8,1.71-9.85,2.72-14.67,4.38-7.74,2.67-15.34,5.78-23.1,8.4-6.68,2.26-13.51,4.09-20.27,6.11-.24-.39-.47-.79-.71-1.18,2.98-2.48,5.83-5.13,8.96-7.41,6.72-4.92,13.59-9.64,20.38-14.45,9.87-7,19.83-13.87,29.57-21.05,10.64-7.85,21.01-16.09,31.62-23.99,7.07-5.26,14.41-10.17,21.56-15.33,9.8-7.08,19.49-14.31,29.33-21.35,7.41-5.3,15.02-10.32,22.43-15.62,4.48-3.21,4.8-5.43,1.62-10.68-11.65-19.24-23.35-38.45-35.07-57.65-9.47-15.52-18.95-31.03-28.52-46.49-10.66-17.23-21.51-34.34-32.13-51.6-7.69-12.5-15.01-25.24-22.76-37.71-8.09-13.02-16.65-25.75-24.71-38.79-7.56-12.22-14.62-24.75-22.13-36.99-5.28-8.61-11.1-16.88-16.41-25.48-4.9-7.95-9.49-16.1-14.11-24.21-1.51-2.65-.38-4.02,2.55-4.24,10.22-.77,20.44-1.6,30.66-2.38,11.25-.85,22.51-1.64,33.76-2.49,13.02-.98,26.04-1.99,39.06-3.01,21.78-1.71,43.55-3.49,65.33-5.13,15.04-1.13,30.11-1.97,45.15-3.1,20.12-1.51,40.24-3.14,60.35-4.77,6.25-.51,12.47-1.35,18.72-1.71,2.97-.17,4.03-1.15,4.01-4.17-.1-17.46-.07-34.92,0-52.38,.01-2.8-.98-4.05-3.81-3.65-.66,.09-1.35,.01-1.99,.17-8.32,1.97-16.63,3.98-24.95,5.95-10.08,2.39-20.18,4.69-30.24,7.15-9.41,2.3-18.77,4.78-28.17,7.13-10.53,2.63-21.05,5.34-31.64,7.74-9.79,2.22-19.69,3.92-29.48,6.15-7.69,1.75-15.28,3.88-22.9,5.94-6.03,1.63-12,3.52-18.06,5.02-1.04,.26-2.43-.86-4.44-1.66,7.74-3.89,14.65-7.1,21.31-10.78,8.68-4.81,17.1-10.09,25.74-14.99,7.69-4.36,15.53-8.46,23.3-12.7,7.16-3.9,14.33-7.77,21.45-11.74,13.14-7.31,26.23-14.71,39.4-21.98,1.25-.69,2.87-.95,4.33-.95,20.11-.06,40.23-.04,61.12-.04,0,2.39,0,4.64,0,6.88,0,381.12,0,762.24,0,1143.36,0,2.32,.04,4.65,.07,6.97-22.95,0-45.9,0-68.86,0-5.71-8.77-11.36-17.58-17.16-26.29-6.13-9.22-12.47-18.31-18.6-27.54-6.07-9.13-11.94-18.4-18.01-27.53-9.51-14.3-19.14-28.51-28.67-42.79-6.97-10.45-13.84-20.97-20.8-31.43-4.31-6.47-8.73-12.88-13.1-19.31,.38-.33,.75-.66,1.13-1,60.49,57.13,120.99,114.26,182.52,172.38,.23-3.27,.44-4.85,.44-6.43,.01-32.42-.1-64.85,.11-97.27,.03-4.58-1.42-7.37-5.18-9.66-6.16-3.74-12.21-7.68-18.17-11.73-11.74-7.99-23.31-16.24-35.09-24.17-12.06-8.12-24.35-15.9-36.42-24.01-12.55-8.43-24.92-17.14-37.44-25.61-9.21-6.23-18.59-12.22-27.8-18.45-9.89-6.69-19.57-13.67-29.51-20.27-9.37-6.21-19.09-11.89-28.41-18.17-8.93-6.02-17.44-12.67-26.34-18.74-14.35-9.77-28.86-19.31-43.33-28.91-3.29-2.18-6.68-4.21-10.02-6.31-.39,.23-.79,.46-1.18,.68,1.63,9.84,2.96,19.74,4.97,29.5,2.98,14.42,6.49,28.73,9.69,43.11,1.15,5.15,1.97,10.37,3.12,15.51,2.36,10.57,4.88,21.1,7.26,31.66,1.22,5.45,2.2,10.95,3.42,16.4,1.91,8.48,4.15,16.89,5.84,25.41,1.74,8.76,2.87,17.63,4.51,26.41,1.42,7.6,3.17,15.13,4.82,22.68,1.09,4.96,2.22,9.91,3.4,14.84,1.34,5.58,2.95,11.1,4.12,16.71,2.09,10.01,3.92,20.07,5.9,30.11,.89,4.51,1.84,9.01,2.88,13.49,1.37,5.89,2.85,11.76,4.27,17.64,.73,3.02,1.45,6.05,2.18,9.08-8.65,0-17.3,0-25.95,0-.27-.74-.35-1.65-.85-2.18-13.45-14.48-26.83-29.03-40.48-43.31-9.46-9.89-19.39-19.31-28.97-29.09-8.05-8.23-15.89-16.67-23.83-25-15.49-16.25-30.96-32.51-46.5-48.71-6.76-7.05-13.67-13.94-20.49-20.93-1.82-1.86-3.55-3.81-5.32-5.72-.48,.35-.96,.69-1.44,1.04,.25,1.42,.28,2.92,.77,4.25,2.1,5.68,4.42,11.28,6.49,16.97,1.17,3.23,1.78,6.67,3.07,9.85,2.38,5.88,5.38,11.52,7.58,17.46,3.69,9.98,6.94,20.13,10.4,30.2,2.29,6.67,4.57,13.35,6.99,19.97,3.04,8.3,6.25,16.54,9.33,24.83,3.59,9.67,7.1,19.37,10.65,29.05,2.6,7.11,5.21,14.22,7.81,21.33-2.66,0-5.32,0-7.98,0Z"/>
      <path class="cls-1" d="M1023.21,1158.3c-1.76-5.93-3.35-11.93-5.35-17.78-1.68-4.92-3.77-9.71-5.81-14.5-2.87-6.76-5.93-13.44-8.75-20.22-1.07-2.57-1.53-5.39-2.53-7.99-5.02-13-10.06-25.99-15.24-38.92-3.66-9.14-7.68-18.13-11.34-27.26-3.47-8.65-6.69-17.4-10.57-27.53,8.85,.83,16.38,1.32,23.84,2.3,6.66,.88,13.24,2.39,19.88,3.45,15.8,2.53,31.6,5.05,47.43,7.38,5.41,.8,10.95,.77,16.36,1.58,13.05,1.96,26.04,4.3,39.09,6.28,5.41,.82,10.93,.88,16.34,1.66,13.38,1.93,26.73,4.09,40.1,6.11,7.01,1.06,14.03,2.05,21.05,2.99,13.1,1.76,26.21,3.46,39.32,5.15,.26,.03,.57-.28,1.58-.8-4.02-5.54-7.92-11.02-11.95-16.42-3.78-5.06-7.69-10.03-11.55-15.04-5.17-6.7-10.39-13.35-15.5-20.1-5.33-7.03-10.49-14.19-15.83-21.2-10.08-13.22-20.3-26.34-30.37-39.58-10.28-13.52-20.63-26.99-30.55-40.76-2.92-4.06-6.09-3.58-9.48-2.17-7.08,2.94-13.94,6.4-20.98,9.44-8.74,3.77-17.6,7.25-26.34,11.01-11.26,4.84-22.43,9.89-33.67,14.76-7.08,3.07-14.23,5.99-21.33,9-9.17,3.89-18.3,7.86-27.5,11.69-8.19,3.41-16.47,6.62-24.65,10.04-3.89,1.62-7.62,3.64-11.5,5.3-12.37,5.27-24.82,10.36-37.16,15.7-7.92,3.43-15.66,7.27-23.55,10.77-8.7,3.85-17.48,7.5-26.21,11.28-11.58,5.01-23.13,10.1-34.72,15.08-9.03,3.88-18.11,7.67-27.21,11.38-.89,.36-2.11-.1-3.9-.23,5.01-13.56,9.95-26.49,14.55-39.55,3.21-9.13,5.78-18.49,8.94-27.65,3.59-10.39,7.6-20.63,11.29-30.99,3.24-9.1,6.2-18.3,9.44-27.4,3.91-10.96,8-21.85,11.98-32.78,1.97-5.39,3.88-10.81,5.82-16.21,2.49-6.91,4.99-13.82,7.46-20.74,1.14-3.2,2.36-6.38,3.25-9.65,.61-2.23-.39-3.76-2.92-2.99-11.16,3.39-22.27,6.9-33.41,10.36-7.8,2.42-15.6,4.84-23.41,7.24-5.95,1.83-11.9,3.66-17.85,5.46-11.45,3.46-22.94,6.82-34.36,10.38-6.68,2.08-13.23,4.61-19.9,6.7-6.89,2.16-13.89,3.98-20.81,6.08-6.9,2.1-13.74,4.4-20.63,6.53-7.06,2.18-14.15,4.24-21.22,6.39-6.73,2.05-13.43,4.18-20.16,6.21-8.56,2.59-17.13,5.12-25.7,7.68-.28-.55-.56-1.1-.84-1.65,4.36-2.88,8.7-5.8,13.09-8.63,10.44-6.72,20.83-13.54,31.39-20.06,9.75-6.03,19.76-11.63,29.55-17.61,7.35-4.5,14.49-9.35,21.78-13.95,10.47-6.61,21-13.13,31.49-19.72,7.57-4.76,15.11-9.55,22.66-14.35,9.87-6.28,19.67-12.66,29.59-18.85,8.15-5.09,16.48-9.89,24.65-14.95,7.65-4.73,15.19-9.64,22.78-14.47,10.79-6.87,21.5-13.86,32.38-20.58,10.63-6.56,21.54-12.67,32.13-19.3,9.43-5.9,18.54-12.3,27.87-18.35,4.94-3.2,10.07-6.11,15.06-9.22,2.35-1.46,4.49-3.29,6.91-4.59,1.62-.87,3.57-1.11,5.41-1.64-2.47,9.22-4.31,17.52-6.92,25.58-5.19,16.06-10.97,31.93-16.18,47.99-3.39,10.43-6.05,21.09-9.31,31.56-3.48,11.18-7.4,22.22-10.9,33.39-3.54,11.27-6.76,22.64-10.2,33.94-1.57,5.16-3.39,10.25-5.01,15.4-3.19,10.15-6.32,20.32-10.01,32.21,4.66-1.56,8.39-2.45,11.82-4.01,15.5-7.04,30.87-14.36,46.37-21.4,15.48-7.03,31.01-13.93,46.58-20.76,14.68-6.43,29.48-12.6,44.15-19.05,13.02-5.73,25.91-11.76,38.93-17.51,10.78-4.75,21.67-9.24,32.47-13.94,2.81-1.22,5.47-2.78,8.19-4.19,2.55-1.32,4.39-1.07,6.34,1.51,7.64,10.12,15.58,20.01,23.32,30.05,6.56,8.51,12.9,17.21,19.54,25.66,6.31,8.03,13.03,15.75,19.31,23.8,10.04,12.87,19.77,26,29.83,38.85,9.73,12.44,19.8,24.62,29.59,37.02,12.33,15.62,24.61,31.28,36.76,47.04,12.17,15.79,24.08,31.78,36.25,47.57,8.51,11.05,17.27,21.91,25.92,32.85,11.62,14.71,23.34,29.35,34.84,44.15,9.65,12.43,19.04,25.06,28.54,37.61,1.42,1.87,2.81,3.76,4.21,5.64-7.98,0-15.97,0-23.95,0-2.75-1.29-5.37-3.18-8.26-3.76-10.98-2.22-22.09-3.79-33.06-6.04-14.97-3.06-29.82-6.7-44.78-9.76-11.27-2.31-22.66-3.99-33.96-6.16-12.94-2.49-25.83-5.24-38.76-7.8-2.59-.51-5.32-.41-7.88-1.02-10.85-2.61-21.61-5.65-32.5-8.05-13.34-2.94-26.72-5.79-40.2-7.95-13.34-2.14-26.56-4.39-39.71-7.73-15.47-3.94-31.38-6.11-47.11-9.02-5.66-1.05-5.84-.82-5.85,5.03-.05,20.76-.14,41.52-.22,62.28-12.64,0-25.28,0-37.92,0Z"/>
      <path class="cls-1" d="M602.09,1158.3c1.48-10.57,2.94-21.15,4.43-31.72,.88-6.2,1.91-12.38,2.72-18.59,1.13-8.68,2.04-17.38,3.19-26.06,1.81-13.73,3.61-27.46,5.65-41.15,1.16-7.76,2.85-15.45,4.22-23.18,.5-2.82,.48-5.07-3.58-5.48-4.73-.48-9.43-1.65-14.03-2.93-5.47-1.51-10.77-3.67-16.25-5.15-9.85-2.67-19.79-5-29.68-7.55-6.98-1.8-13.94-3.72-20.9-5.63-8.23-2.26-16.43-4.63-24.67-6.85-7.77-2.09-15.57-4.06-23.36-6.08-9.7-2.51-19.41-4.96-29.1-7.52-6.5-1.72-12.97-3.59-19.46-5.36-5.87-1.6-11.75-3.16-17.62-4.76-10.11-2.75-20.21-5.54-30.33-8.26-6.21-1.66-12.46-3.18-18.67-4.82-9.19-2.44-18.35-4.96-27.53-7.4-7.28-1.94-14.59-3.8-21.88-5.72-8.57-2.27-17.12-4.63-25.71-6.84-8.6-2.21-17.27-4.18-25.85-6.45-7.93-2.09-15.79-4.44-23.68-6.67-.96-.27-1.93-.84-2.86-.77-5.74,.4-6.26-2.85-5.14-7.22,1.96-7.65,4.02-15.27,5.99-22.92,.9-3.49,1.72-7,2.47-10.53,2.91-13.65,5.78-27.31,8.66-40.96,.6-2.83,.04-4.29-3.28-5.26-10.56-3.09-20.97-6.71-31.38-10.26-8.48-2.9-16.84-6.15-25.35-8.97-9.47-3.14-19.06-5.91-28.56-8.94-6.37-2.03-12.69-4.23-19.03-6.35-6.64-2.21-13.29-4.41-19.93-6.63-6.06-2.02-12.09-4.13-18.17-6.09-9.94-3.2-19.94-6.26-29.87-9.48-6.22-2.02-12.37-4.26-18.58-6.32-7.17-2.38-14.41-4.58-21.56-7.05-8.75-3.02-17.4-6.32-26.15-9.34-4.03-1.39-8.25-2.23-12.26-3.68-1.65-.6-4.17-2.08-4.23-3.28-.4-7.07-.2-14.18-.2-21.46,7.22,.84,13.73,1.55,20.24,2.37,2.78,.35,5.52,1.06,8.31,1.4,16.26,1.98,32.53,3.87,48.8,5.83,13.1,1.58,26.18,3.26,39.28,4.83,8.04,.97,16.1,1.78,24.14,2.74,14.62,1.73,29.23,3.61,43.87,5.24,11.18,1.25,22.41,2.08,33.59,3.33,14.29,1.59,28.55,3.43,42.83,5.14,8.05,.96,16.1,1.86,24.15,2.82,14.22,1.68,28.45,3.32,42.66,5.11,3.57,.45,7.09,1.31,10.59,2.17,3.22,.79,3.84,3.08,3.32,6.13-1.06,6.19-1.69,12.45-2.9,18.6-2.48,12.58-5.24,25.1-7.89,37.65-.17,.81-.5,1.58-.61,2.39-1.51,11.16-2.99,22.32-4.51,33.48-.13,.98-.22,2.04-.66,2.88-2.21,4.2,.22,6.57,3.61,7.64,7.18,2.26,14.56,3.91,21.81,5.94,7.91,2.21,15.76,4.65,23.68,6.85,4.74,1.32,9.59,2.26,14.33,3.59,7.52,2.1,14.99,4.4,22.5,6.57,4.26,1.23,8.53,2.4,12.8,3.58,8.86,2.45,17.71,4.92,26.58,7.31,7.62,2.05,15.31,3.87,22.91,5.98,8.01,2.23,15.95,4.75,23.95,7.01,7.13,2.02,14.33,3.82,21.48,5.78,12.21,3.34,24.4,6.76,36.62,10.07,7.42,2.01,14.91,3.76,22.29,5.87,10.51,3,20.95,6.26,31.45,9.34,3.79,1.11,7.64,2.03,11.46,3.02,10.97,2.86,21.99,5.57,32.91,8.61,10.84,3.02,21.54,6.53,32.38,9.52,6.85,1.89,13.84,3.28,20.78,4.81,3.67,.81,4.42,3.17,3.46,6.32-2.15,7.02-4.52,13.97-6.64,20.99-1.23,4.07-2.14,8.24-3.25,12.35-1.88,6.94-3.84,13.86-5.73,20.8-2.5,9.2-4.85,18.45-7.49,27.61-3.07,10.68-6.5,21.26-9.53,31.95-2.28,8.05-4.03,16.25-6.28,24.31-2.05,7.36-4.55,14.59-6.62,21.94-.55,1.94-.24,4.12-.33,6.19,1.68-.63,3.34-1.29,5.03-1.89,4.16-1.49,8.35-2.91,12.49-4.46,7.37-2.75,14.73-5.55,22.08-8.38,3.68-1.42,7.28-3.04,10.99-4.37,13.58-4.89,27.28-9.46,40.76-14.61,13.41-5.13,26.55-10.95,39.92-16.2,8.06-3.16,16.37-5.67,24.49-8.69,9.81-3.65,19.53-7.53,29.29-11.3,3.68-1.42,7.36-2.83,11.03-4.26,3.81-1.48,7.64-2.89,11.4-4.48,4.99-2.11,7.59-.37,11.06,6.68,5.77,11.72,11.99,23.21,17.7,34.96,4.43,9.11,8.18,18.55,12.59,27.68,3.17,6.56,6.97,12.83,10.42,19.26,.6,1.12,.85,2.44,1.26,3.66-31.27,0-62.54,0-93.8,0-4.17-3.24-8.24-6.61-12.57-9.62-1.02-.71-3.11-.68-4.33-.13-5.39,2.41-10.67,5.09-15.93,7.78-.56,.28-.74,1.3-1.1,1.97-65.2,0-130.39,0-195.59,0Z"/>
      <path class="cls-1" d="M139.06,1158.3c-7.26-11.06-14.5-22.14-21.79-33.18-11.94-18.06-23.88-36.11-35.88-54.13-6.09-9.14-12.38-18.13-18.43-27.3-7.97-12.09-15.71-24.34-23.71-36.41-4.17-6.29-8.7-12.33-13.04-18.5-1.2-1.71-2.27-3.52-4.15-6.45,2.31,1.13,3.73,1.46,4.62,2.33,9.91,9.66,19.62,19.53,29.63,29.08,5.15,4.91,10.98,9.09,16.17,13.95,7.35,6.9,14.26,14.27,21.6,21.18,13.55,12.77,27.38,25.24,40.88,38.05,10.5,9.97,20.55,20.4,31.04,30.38,12.94,12.32,26.16,24.35,39.17,36.59,1.22,1.14,1.83,2.92,2.73,4.41-22.95,0-45.9,0-68.86,0Z"/>
      <path class="cls-1" d="M415.48,1158.3c1.74-1.38,3.31-3.1,5.25-4.07,8.33-4.18,16.73-8.21,25.17-12.16,6.23-2.92,12.58-5.57,18.83-8.43,12.36-5.65,24.66-11.44,37.04-17.03,10.14-4.58,20.45-8.8,30.53-13.5,5-2.33,9.62-5.45,14.5-8.05,1.36-.73,3.03-.88,5.15-1.46,0,2.39,.27,4.19-.04,5.89-2.49,13.62-5.12,27.21-7.64,40.82-1.11,5.99-2.05,12-3.06,18-41.91,0-83.82,0-125.74,0Z"/>
      <path class="cls-1" d="M1711.76,1158.3c-1.84-6.76-3.6-13.55-5.54-20.28-2.11-7.35-4.4-14.64-6.58-21.97-2.2-7.42-4.28-14.89-6.56-22.28-1.98-6.4-4.23-12.72-6.2-19.13-.33-1.08,.16-2.42,.34-4.4,8.67,12.64,16.84,24.53,24.99,36.45,4.87,7.12,9.73,14.25,14.52,21.43,6.69,10.03,13.31,20.12,19.96,30.18-11.64,0-23.28,0-34.93,0Z"/>
      <path class="cls-1" d="M47.25,1158.3c-1.79-6.62-3.52-13.25-5.41-19.84-1.38-4.85-2.99-9.64-4.46-14.46-3.04-10.03-6.02-20.07-9.09-30.09-1.96-6.4-4.1-12.75-6-19.17-.33-1.1,.15-2.44,.33-4.53,8.94,13.18,17.3,25.53,25.7,37.86,4.58,6.73,9.28,13.38,13.83,20.13,5.02,7.44,9.92,14.95,14.88,22.42,1.71,2.57,3.43,5.12,5.15,7.68-11.64,0-23.28,0-34.93,0Z"/>
      <path class="cls-1" d="M1149.94,1158.3c-1.14-1.5-2.28-2.99-3.94-5.17,5,1.08,10.13-.19,12.93,5.17-2.99,0-5.99,0-8.98,0Z"/>
      <path class="cls-1" d="M829.57,306.52c-1.12-2.89-1.91-5.42-3.05-7.79-3.25-6.8-6.65-13.53-9.95-20.3-5.3-10.88-10.58-21.77-15.82-32.67-1.27-2.64-2.39-3.26-5.72-2.12-7.58,2.59-15.53,4.09-23.35,5.97-10.08,2.43-20.18,4.81-30.27,7.2-8.48,2.01-17,3.89-25.45,6.01-8.88,2.23-17.68,4.73-26.55,7.01-7.62,1.96-15.27,3.81-22.92,5.61-.87,.2-1.89-.21-4.18-.52,9.13-5.23,17.18-9.87,25.25-14.46,8.12-4.62,16.26-9.21,24.39-13.81,10.08-5.71,20.16-11.41,30.23-17.13,9.4-5.34,18.76-10.73,28.18-16.03,7.96-4.48,16-8.81,23.96-13.3,9.28-5.24,18.5-10.59,27.77-15.85,4.12-2.33,8.12-5.05,12.53-6.58,1.62-.56,5.01,1.25,6.3,2.95,10.37,13.7,20.34,27.71,30.61,41.49,9.34,12.54,19,24.85,28.32,37.4,8.96,12.05,17.57,24.36,26.51,36.42,6.11,8.23,12.66,16.14,18.78,24.37,5.23,7.03,10.24,14.22,15.09,21.52,1.24,1.87,6.17,2.35,3.23,5.79-1.29,1.51-4.54,1.47-6.94,1.86-12.03,1.99-24.1,3.78-36.12,5.84-10.9,1.87-21.75,4.06-32.64,6.02-6.01,1.08-12.05,1.94-18.06,2.99-13.65,2.4-27.27,4.9-40.92,7.27-6.66,1.16-13.37,2.04-20.03,3.19-18.69,3.21-37.37,6.49-56.06,9.74-.33,.06-.65,.14-.98,.18-11.96,1.52-23.97,2.77-35.88,4.63-10.07,1.57-20.01,3.93-30.05,5.76-7.12,1.3-14.32,2.2-21.45,3.47-12.67,2.26-25.29,4.87-37.99,6.93-11.25,1.82-22.63,2.85-33.89,4.66-8.01,1.29-15.91,3.29-24.68,5.14,1.76,1.65,2.95,3.21,4.52,4.17,12.23,7.51,24.52,14.94,36.83,22.33,12.78,7.68,25.69,15.15,38.38,22.98,10.91,6.74,21.53,13.96,32.4,20.76,7.16,4.48,14.61,8.49,21.8,12.91,8.46,5.19,16.76,10.63,25.17,15.91,5.37,3.37,10.8,6.62,16.2,9.94,5.38,3.32,10.73,6.68,16.13,9.98,5.93,3.63,11.93,7.15,17.85,10.81,8.46,5.23,16.85,10.58,25.31,15.81,9.72,6.01,19.51,11.89,29.21,17.93,9.12,5.68,18.09,11.6,27.26,17.21,6.96,4.26,14.06,8.29,21.2,12.22,5.18,2.85,5.36,4.38,.66,7.64-16.65,11.54-33.19,23.23-49.89,34.69-6.62,4.54-13.66,8.45-20.32,12.91-7.58,5.08-14.93,10.53-22.44,15.71-15.03,10.37-30.12,20.64-45.15,31-7.67,5.29-15.21,10.77-22.91,16-12.82,8.7-25.77,17.22-38.61,25.89-6.49,4.38-12.86,8.93-19.27,13.43-11.77,8.24-23.5,16.52-35.29,24.73-11.65,8.11-23.29,16.23-35.04,24.18-13.2,8.94-26.58,17.63-39.78,26.57-8.94,6.05-17.72,12.33-26.55,18.55-2.67,1.88-5.18,3.98-7.89,5.8-2.38,1.6-4.52,1.48-6.38-1.17-6.1-8.68-12.34-17.26-18.51-25.9-6.45-9.03-12.95-18.02-19.3-27.12-5.58-7.99-10.86-16.19-16.49-24.15-5.85-8.27-12.07-16.27-17.92-24.54-7.99-11.3-15.71-22.8-23.7-34.1-6.2-8.78-12.7-17.35-18.96-26.1-6.64-9.28-13.1-18.69-19.73-27.98-4.51-6.32-9.18-12.52-13.73-18.8-.4-.56-.49-1.34,.05-2.85,4.86,2.97,9.73,5.93,14.58,8.92,14.97,9.23,29.97,18.4,44.87,27.73,10.19,6.38,20.2,13.05,30.38,19.45,7.86,4.94,15.91,9.58,23.77,14.52,9.71,6.11,19.31,12.39,28.96,18.6,3.04,1.95,5.96,4.15,9.19,5.71,1.3,.63,3.61,.4,4.89-.38,17.03-10.41,33.87-21.15,50.95-31.49,16.95-10.27,34.23-20,51.17-30.29,12.82-7.79,25.22-16.28,38.02-24.12,16.83-10.3,33.87-20.27,50.81-30.39,7.71-4.61,15.5-9.11,23.07-13.93,2.93-1.87,3.2-4.51,.06-6.79-5.71-4.13-11.46-8.2-17.14-12.36-7.97-5.83-15.79-11.88-23.88-17.55-8.66-6.07-17.62-11.69-26.3-17.74-6.22-4.34-12.11-9.16-18.28-13.58-9.55-6.83-19.25-13.43-28.81-20.25-8.53-6.09-16.93-12.36-25.42-18.51-15.96-11.56-31.88-23.17-47.93-34.61-16.66-11.88-33.45-23.55-50.16-35.36-12.51-8.84-24.97-17.76-37.46-26.64-9.93-7.06-19.91-14.07-29.79-21.2-3.71-2.68-7.21-5.66-11.26-8.85,1.11-.82,2.33-2.38,3.82-2.71,5.62-1.21,11.34-1.95,17-2.99,8.07-1.48,16.12-3.1,24.19-4.59,2.28-.42,4.64-.47,6.92-.89,6.45-1.19,12.87-2.51,19.32-3.72,6.97-1.3,13.94-2.6,20.93-3.78,11.87-2,23.77-3.85,35.64-5.88,9.43-1.62,18.82-3.41,28.23-5.13,19.27-3.53,38.55-6.95,57.79-10.64,14.49-2.78,28.88-6.07,43.37-8.87,7.93-1.54,15.99-2.38,23.94-3.82,11.97-2.17,23.89-4.65,35.85-6.9,6.5-1.22,13.04-2.16,19.54-3.38,11.48-2.17,22.93-4.52,34.41-6.68,6.79-1.28,13.63-2.35,20.44-3.52,6.64-1.13,13.27-2.26,21.02-3.58Z"/>
      <path class="cls-1" d="M1497.44,420.68c-6.14,2.1-12.29,4.16-18.42,6.31-11.44,4.02-22.86,8.11-34.31,12.11-3.26,1.14-6.58,2.08-9.88,3.09-6.75,2.07-13.58,3.92-20.25,6.22-10.69,3.69-21.26,7.72-31.92,11.49-3.25,1.15-6.68,1.76-9.95,2.86-11.36,3.8-22.72,7.63-34.02,11.59-10.82,3.79-21.57,7.82-32.39,11.63-3.11,1.1-6.38,1.74-9.53,2.74-10.48,3.34-21,6.56-31.38,10.19-6.73,2.35-13.19,5.5-19.89,7.96-3.24,1.19-6.81,1.42-10.12,2.46-10.95,3.42-21.91,6.83-32.74,10.61-6.55,2.28-12.81,5.4-19.33,7.82-4.46,1.66-9.17,2.6-13.67,4.15-8.64,2.99-17.19,6.25-25.82,9.29-3.41,1.2-6.94,2.05-10.37,3.17-8.56,2.79-17.08,5.69-25.65,8.45-5.62,1.81-6.52,.88-7.96-4.97-2.6-10.49-5.89-20.82-8.47-31.32-1.85-7.53-2.75-15.28-4.55-22.82-2.48-10.38-5.45-20.64-8.14-30.97-1.12-4.31-2.13-8.65-3.09-13-1.98-8.87-3.73-17.78-5.88-26.61-2.13-8.78-4.74-17.44-6.92-26.2-1.31-5.28-2.04-10.7-3.32-15.99-3.21-13.26-6.7-26.45-9.85-39.72-1.67-7.05-2.63-14.26-4.36-21.29-2.65-10.78-5.87-21.41-8.5-32.19-1.84-7.54-2.86-15.27-4.67-22.82-2.46-10.22-5.52-20.3-7.98-30.52-1.93-8-3.23-16.15-5.01-24.18-1.55-7.04-3.4-14.03-5.08-21.04-2.56-10.73-5.09-21.47-7.63-32.21-.04-.16-.03-.33-.06-.49-.38-2.48-.77-4.95-1.15-7.43,3.59,.04,7.26-.37,10.76,.22,6.79,1.15,13.48,2.88,20.22,4.34,7.07,1.53,14.13,3.08,21.22,4.51,5.96,1.21,11.97,2.19,17.93,3.39,10.65,2.14,21.28,4.38,31.92,6.54,5.93,1.21,11.87,2.36,17.81,3.52,9.54,1.86,19.08,3.72,28.62,5.57,8.9,1.73,17.82,3.39,26.7,5.19,11.24,2.28,22.45,4.69,33.68,7.02,4.79,.99,9.58,1.99,14.39,2.88,15.08,2.8,30.2,5.41,45.25,8.36,9.83,1.93,19.56,4.37,29.36,6.45,5.97,1.27,11.99,2.27,17.98,3.45,16.47,3.25,32.92,6.61,49.42,9.76,7.6,1.45,15.3,2.35,22.9,3.81,5.76,1.11,11.39,2.82,17.12,4.07,5.79,1.26,11.64,2.25,17.45,3.41,12.56,2.5,25.11,5.05,37.68,7.52,5.49,1.08,11.02,1.93,16.5,3.03,11.12,2.23,22.21,4.63,33.34,6.82,6.77,1.33,13.59,2.42,20.38,3.59,1.22,.21,2.45,.33,3.86,1.67-1.05,.3-2.1,.87-3.15,.86-12.46-.17-24.93-.29-37.39-.69-18.55-.59-37.08-1.44-55.63-2.11-27.2-.98-54.4-1.92-81.61-2.84-24.02-.81-48.03-1.59-72.05-2.34-32.67-1.03-65.35-1.96-98.02-3.07-27.35-.93-54.7-2.05-82.05-3.1-2.59-.1-3.69,.85-3.05,3.55,1.56,6.53,3.07,13.08,4.54,19.63,2.53,11.24,5.08,22.47,7.5,33.74,1.21,5.63,2.02,11.35,3.19,16.99,1.92,9.33,3.97,18.63,6,27.93,1.37,6.26,2.8,12.51,4.21,18.77,1.51,6.71,3.01,13.41,4.52,20.12,1.03,4.61,2.15,9.21,3.07,13.85,2.02,10.19,3.99,20.39,5.85,30.61,.75,4.14,3.12,6.03,7.11,5.58,5.73-.64,11.48-1.33,17.23-1.55,23.36-.91,46.72-1.73,70.09-2.41,17.61-.51,35.24-.59,52.85-1.14,15.58-.49,31.15-1.47,46.73-2.05,25.55-.96,51.1-1.69,76.65-2.67,15.91-.61,31.81-1.63,47.72-2.23,10.13-.38,20.28-.33,30.42-.41,1.06,0,2.12,.4,3.17,.62-.03,.28-.06,.57-.09,.85Z"/>
      <path class="cls-1" d="M69.5,561.06c5.16-.65,10.32-1.82,15.48-1.88,30.93-.34,61.86-.34,92.79-.62,34.75-.31,69.5-.64,104.24-1.24,21.89-.38,43.77-1.28,65.66-1.91,19.22-.56,38.44-1.07,57.67-1.63,1.12-.03,2.24-.29,4.28-.57-3.01-3.12-5.45-5.82-8.07-8.33-6.74-6.47-13.44-12.99-20.37-19.26-11.75-10.62-23.8-20.91-35.48-31.6-10.05-9.2-19.68-18.86-29.68-28.13-6.24-5.79-12.92-11.11-19.21-16.85-16.06-14.64-32.06-29.34-47.99-44.11-8.11-7.52-15.98-15.32-24.07-22.86-10.62-9.9-21.36-19.67-32.04-29.51-10.56-9.72-21.13-19.43-31.62-29.23-.9-.84-1.95-2.81-1.57-3.44,.6-1,2.29-1.56,3.62-1.87,7.35-1.69,14.72-3.31,22.11-4.83,5.78-1.19,11.63-2.08,17.4-3.33,6.08-1.32,12.09-2.97,18.16-4.35,5.14-1.17,10.33-2.11,15.49-3.23,11.56-2.53,23.09-5.22,34.67-7.64,9.99-2.08,20.07-3.69,30.04-5.86,10.08-2.19,20.05-4.83,30.09-7.21,3.99-.94,8.02-1.74,12.04-2.54,9.62-1.93,19.29-3.66,28.87-5.77,9.77-2.15,19.44-4.74,29.19-6.98,5.28-1.22,10.65-2.04,15.95-3.18,11.36-2.44,22.7-5.04,34.07-7.46,9.35-1.99,18.76-3.72,28.11-5.73,5.76-1.24,11.44-2.87,17.19-4.18,5.6-1.28,11.25-2.35,16.86-3.57,11.26-2.44,22.5-4.98,33.78-7.36,5.63-1.19,11.35-1.96,16.96-3.21,10.05-2.23,20.03-4.77,30.08-7,5.8-1.29,11.7-2.11,17.51-3.37,10.6-2.29,21.15-4.82,31.76-7.1,2.62-.57,5.37-.58,8.06-.84,.15,.52,.3,1.03,.44,1.55-2.91,1.45-5.79,2.94-8.72,4.35-9.95,4.78-19.88,9.62-29.9,14.25-10.23,4.73-20.55,9.26-30.83,13.85-8.34,3.72-16.73,7.33-25.02,11.15-7.58,3.5-15.04,7.27-22.59,10.84-10.62,5.02-21.27,9.98-31.92,14.94-9.94,4.63-19.87,9.27-29.83,13.85-10.97,5.05-22.02,9.94-32.95,15.09-11.52,5.43-22.88,11.23-34.42,16.62-10.4,4.86-21,9.3-31.43,14.12-13.18,6.09-26.26,12.42-39.42,18.58-7.4,3.46-14.88,6.74-22.28,10.2-1.07,.5-2.41,1.45-2.62,2.41-.16,.77,1.09,1.99,1.92,2.8,6.14,6.02,12.32,12.01,18.52,17.96,4.55,4.37,9.16,8.68,13.76,13.01,4,3.76,8.01,7.53,12.05,11.25,10.45,9.64,21.02,19.15,31.36,28.91,6.37,6.01,12.36,12.41,18.62,18.53,3.32,3.24,6.93,6.19,10.31,9.37,19.94,18.74,39.88,37.46,59.74,56.27,10.77,10.19,21.38,20.55,32.07,30.82,11.15,10.72,22.25,21.49,33.47,32.12,6.13,5.81,12.54,11.33,18.71,17.11,8.04,7.53,15.96,15.18,23.91,22.8,.85,.81,1.57,1.76,3.39,3.81-6.96-.73-12.39-1.13-17.77-1.9-8.79-1.25-17.56-2.67-26.32-4.15-13.31-2.25-26.57-4.74-39.9-6.88-5.07-.81-10.28-.74-15.38-1.44-11.28-1.53-22.53-3.25-33.78-4.98-10.27-1.57-20.51-3.29-30.78-4.86-11.76-1.8-23.53-3.59-35.31-5.27-15.04-2.15-30.13-4-45.14-6.33-11.09-1.72-22.07-4.12-33.14-5.98-4.9-.82-9.94-.86-14.86-1.61-13.2-2-26.38-4.22-39.57-6.31-6.18-.98-12.39-1.83-18.57-2.83-14.98-2.41-29.93-4.96-44.93-7.27-8.01-1.23-16.1-1.91-24.11-3.14-9.11-1.39-18.14-3.3-27.26-4.63-6.4-.93-12.93-.97-19.32-1.94-11.9-1.81-23.73-4.09-35.61-6.01-5.53-.89-11.12-1.38-16.68-2.05,.02-.41,.04-.83,.06-1.24Z"/>
      <path class="cls-1" d="M1677.1,1.94c-6.1,2.26-12.15,4.63-18.29,6.77-10.98,3.81-22.02,7.46-33.01,11.22-9.49,3.25-18.96,6.56-28.44,9.84-7.62,2.64-15.21,5.35-22.86,7.9-9.18,3.05-18.44,5.89-27.61,8.97-6.69,2.25-13.27,4.81-19.94,7.1-12.88,4.44-25.78,8.82-38.7,13.17-6.2,2.09-12.51,3.88-18.61,6.22-.95,.36-1.96,3.51-1.41,4.4,7.7,12.37,15.78,24.51,23.54,36.84,5.71,9.09,11,18.43,16.62,27.58,5.2,8.46,10.62,16.79,15.87,25.21,3.62,5.8,7.11,11.69,10.73,17.49,.83,1.34,1.97,2.49,3.66,4.59-3.13,0-5.77,.4-8.24-.08-7.08-1.35-14.09-3.09-21.13-4.61-11.72-2.53-23.45-5.08-35.19-7.5-5.31-1.1-10.7-1.8-16.01-2.92-6.07-1.28-12.08-2.89-18.14-4.25-5.14-1.15-10.31-2.16-15.47-3.22-12.57-2.58-25.12-5.26-37.72-7.7-10.82-2.1-21.74-3.7-32.53-5.92-9.96-2.05-19.79-4.74-29.73-6.92-6.12-1.34-12.37-2.08-18.5-3.37-10.42-2.2-20.77-4.73-31.19-6.93-6.14-1.3-12.38-2.08-18.52-3.35-11.11-2.3-22.17-4.81-33.27-7.18-5.14-1.09-10.32-1.98-15.46-3.06-11.04-2.33-22.06-4.8-33.11-7.09-6.29-1.3-12.65-2.26-18.95-3.53-6.45-1.3-12.84-2.85-19.29-4.18-6.11-1.26-12.26-2.31-18.37-3.55-12.26-2.5-24.5-5.08-36.75-7.61-4.85-1-9.73-1.87-14.57-2.92-10.75-2.32-21.46-4.79-32.22-7.05-5.97-1.25-12.03-2.08-17.99-3.33-15.12-3.17-30.2-6.5-45.31-9.71-5.62-1.19-11.25-2.35-16.93-3.12-.81-.11-2.92,2.26-2.76,3.2,.96,5.83,2.42,11.57,3.66,17.36,.58,2.73,.97,5.49,1.55,8.22,3.45,16.12,7,32.22,10.37,48.36,2.29,10.99,4.28,22.05,6.55,33.05,.49,2.38,1.74,4.6,2.41,6.95,.43,1.5,.44,3.11,.63,4.67-.57,.14-1.13,.27-1.7,.41-59.51-63.39-119.01-126.79-178.52-190.18,.3-.73,.59-1.46,.89-2.18,12.28,1.22,24.61,2.12,36.84,3.74,14.23,1.88,28.39,4.26,42.54,6.66,14.46,2.45,28.89,5.14,43.31,7.82,11.99,2.23,23.92,4.76,35.93,6.9,12.35,2.2,24.78,3.91,37.12,6.15,10.2,1.85,20.28,4.36,30.48,6.2,13.14,2.38,26.37,4.27,39.53,6.58,9.91,1.74,19.76,3.81,29.63,5.72,2.43,.47,4.87,.94,7.31,1.34,18.23,2.97,36.52,5.67,54.7,8.95,19.75,3.57,39.36,7.84,59.09,11.49,13.32,2.46,26.77,4.24,40.12,6.57,9.24,1.62,18.42,3.65,27.62,5.51,1.29,.26,2.56,.63,3.86,.83,14.01,2.25,28.05,4.29,42.02,6.75,11.7,2.06,23.29,4.78,34.98,6.89,8.28,1.49,16.67,2.37,24.98,3.71,3.91,.63,7.76,1.72,11.63,2.6,.26-.45,.53-.91,.79-1.36-1.49-3.19-2.75-6.53-4.53-9.55-6.39-10.86-12.95-21.62-19.46-32.41-5.67-9.39-11.26-18.84-17.08-28.14-3.5-5.61-3.07-6.78,3.53-7.49,11.86-1.27,23.75-2.32,35.58-3.86,15.89-2.07,31.72-4.7,47.61-6.78,16.73-2.18,33.53-3.84,50.26-6.01,14.9-1.93,29.74-4.29,44.62-6.38,3.62-.51,7.28-.98,10.92-.98,41.9-.07,83.79-.04,125.69-.04,.1,.18,.2,.37,.3,.55Z"/>
      <path class="cls-1" d="M1409.24,539.7c-10.25,7.74-19.53,14.85-28.91,21.82-7.47,5.55-15.1,10.87-22.58,16.4-12.59,9.31-25.07,18.76-37.67,28.05-14.07,10.37-28.25,20.59-42.3,30.97-2.25,1.66-3.05,3.61-.43,6.14,6.96,6.71,13.83,13.52,20.46,20.55,8.73,9.25,17.11,18.84,25.82,28.12,5.42,5.78,11.25,11.18,16.77,16.88,12.39,12.81,24.67,25.72,37.03,38.55,9.99,10.36,20.19,20.53,30.03,31.02,11.46,12.23,22.59,24.76,33.98,37.06,2.08,2.24,4.73,3.94,6.99,6.03,1.09,1.01,1.88,2.34,2.1,4.45-1.63-.61-3.4-.98-4.87-1.86-11.2-6.63-22.35-13.35-33.5-20.06-9.82-5.91-19.57-11.93-29.45-17.74-14.21-8.37-28.54-16.53-42.75-24.9-13.65-8.03-27.17-16.29-40.83-24.3-13.04-7.64-26.26-14.99-39.29-22.64-10.43-6.13-20.64-12.65-31.08-18.77-8.89-5.21-18.01-10.04-26.96-15.15-3.11-1.77-6.29-3.56-8.99-5.87-4.26-3.66-8.39-2.76-12.55-.33-13.29,7.75-26.57,15.51-39.75,23.44-8.63,5.2-16.97,10.88-25.65,16-10.24,6.03-20.75,11.6-31.05,17.51-5.68,3.26-11.29,6.65-16.72,10.31-3.83,2.58-5.93,2-8.11-2.15-8.29-15.77-16.91-31.38-25.36-47.07-7.04-13.09-14.12-26.15-20.99-39.33-5.06-9.71-9.57-19.72-14.76-29.36-4.92-9.13-10.48-17.91-15.6-26.94-3.23-5.69-6.15-11.55-9.24-17.31-3.79-7.05-7.63-14.08-11.43-21.12-3.09-5.72-6.17-11.44-9.21-17.18-3.52-6.64-7.2-13.21-10.41-20-2.48-5.25-7.16-7.29-11.98-8.73-11.68-3.49-23.59-6.24-35.26-9.75-11.14-3.35-22.07-7.38-33.16-10.92-4.23-1.35-8.66-2.06-12.97-3.21-8.14-2.17-16.26-4.38-24.36-6.69-5.67-1.62-11.29-3.43-16.93-5.16-10.2-3.14-20.38-6.33-30.59-9.44-8.64-2.63-17.28-5.3-25.97-7.75-14.05-3.97-28.19-7.6-42.19-11.73-5.5-1.62-10.72-4.17-17.54-6.88,6.03,0,10.63-.18,15.21,.03,25.68,1.17,51.43,1.54,77,3.89,28.26,2.6,56.56,3.39,84.86,4.62,12.07,.52,24.13,1.33,36.2,1.97,16.56,.88,33.13,1.65,49.69,2.62,8.14,.48,16.35,.78,24.33,2.24,2.7,.49,5.35,3.92,7.08,6.61,8.46,13.12,16.68,26.4,24.85,39.71,7.78,12.69,15.3,25.54,23.11,38.21,7.04,11.41,14.41,22.61,21.46,34.01,11.05,17.85,21.87,35.85,33.13,53.58,.93,1.46,4.73,2.23,6.74,1.67,14.05-3.88,28-8.14,41.96-12.37,7.86-2.38,15.67-4.92,23.49-7.4,4.05-1.29,8.05-2.77,12.14-3.88,12.19-3.28,24.46-6.28,36.62-9.67,8.09-2.25,16.05-4.98,24.07-7.48,4.22-1.32,8.43-2.7,12.69-3.9,8.07-2.28,16.22-4.31,24.26-6.71,11.78-3.51,23.45-7.35,35.23-10.85,6.03-1.79,12.22-3.03,18.27-4.73,8.36-2.35,16.65-4.92,24.98-7.36,6.31-1.85,12.63-3.64,18.95-5.46,8.05-2.32,16.12-4.57,24.13-7,4.53-1.38,8.93-3.21,13.49-4.49,1.15-.32,2.68,.7,4.25,1.17Z"/>
      <path class="cls-1" d="M549.61,1050.7c-1.74,.57-3.45,1.32-5.24,1.68-11.29,2.32-22.58,4.61-33.89,6.81-11.5,2.24-23.05,4.25-34.53,6.57-9.17,1.85-18.29,4.03-27.42,6.06-.65,.14-1.29,.31-1.94,.42-12.5,2.2-25.06,4.07-37.48,6.66-16.41,3.43-32.69,7.51-49.06,11.11-6.11,1.34-12.35,2.09-18.51,3.19-11.85,2.11-23.69,4.28-35.53,6.42-1.14,.21-2.55,0-3.39,.6-7.26,5.24-12.96,1.53-18.92-2.73-7.33-5.25-15.04-9.97-22.47-15.08-9.74-6.7-19.32-13.62-29.07-20.3-6.2-4.25-12.6-8.19-18.86-12.34-13.69-9.06-27.37-18.14-41-27.27-17.05-11.43-34.08-22.88-51.08-34.4-8.79-5.95-17.44-12.11-26.23-18.07-11.44-7.75-22.94-15.42-34.45-23.06-13.37-8.88-26.8-17.67-40.15-26.58-5.94-3.97-11.83-8.03-17.54-12.32-1.23-.92-2.25-2.98-2.26-4.52-.13-22.45-.07-44.9-.03-67.34,0-.46,.24-.91,.52-1.91,5.67,3.26,11.2,6.33,16.62,9.58,13.98,8.38,27.93,16.79,41.84,25.29,6.8,4.15,13.4,8.62,20.21,12.74,15.82,9.58,31.7,19.07,47.59,28.54,6.6,3.93,13.41,7.54,19.93,11.59,8.31,5.17,16.33,10.8,24.66,15.93,6.96,4.29,14.25,8.06,21.29,12.22,8.23,4.86,16.32,9.95,24.52,14.85,10.76,6.44,21.61,12.74,32.34,19.23,7.91,4.79,15.65,9.88,23.53,14.71,6.14,3.76,12.44,7.25,18.58,10.99,5.97,3.64,11.79,7.51,17.75,11.16,1.32,.81,2.94,1.41,4.48,1.56,15.33,1.48,30.89,1.68,45.95,4.56,17.45,3.33,35.09,3.97,52.6,6.2,19.98,2.55,40.08,4.17,60.08,6.53,15.08,1.78,30.08,4.2,45.14,6.12,8.86,1.13,17.78,1.85,26.67,2.75,1.51,.15,3.03,.24,4.55,.36,.07,.49,.14,.99,.21,1.48Z"/>
      <path class="cls-1" d="M199.64,477.78c-13.7,4.57-26.64,8.73-39.47,13.22-10.08,3.53-19.95,7.63-30.02,11.15-9.61,3.36-19.4,6.21-29.05,9.45-6.63,2.23-13.15,4.81-19.76,7.13-9.88,3.48-19.82,6.8-29.7,10.31-10.94,3.89-21.78,8.06-32.76,11.83-5.72,1.97-11.65,3.34-18.26,5.21,0-8.81-.06-16.86,.09-24.91,.02-.89,1.06-1.98,1.91-2.6,10.98-8,22.05-15.88,33.02-23.89,10.94-7.98,21.74-16.13,32.7-24.07,8.32-6.03,16.85-11.76,25.16-17.81,3.51-2.56,6.57-5.73,10.05-8.33,2.82-2.11,1.93-4.03,.49-6.34-9.71-15.62-19.43-31.23-29.02-46.92-9.39-15.36-18.57-30.85-27.93-46.23-9.53-15.64-19.11-31.25-28.77-46.8-5.09-8.19-10.54-16.16-15.51-24.42-1.37-2.28-2.2-5.25-2.21-7.91-.14-52.2-.12-104.41-.11-156.61,0-.8,.27-1.59,.41-2.38,7.71-.93,15.24-2.1,22.81-2.68,18.17-1.39,36.36-2.5,54.54-3.71,15.55-1.04,31.1-1.97,46.64-3.13,19.46-1.46,38.89-3.19,58.35-4.65,16.02-1.2,32.07-2,48.07-3.31,7.21-.59,14.33-2.34,21.54-2.93,9.85-.81,19.74-1.01,29.62-1.47,.15,.43,.31,.86,.46,1.28-2.24,1.07-4.39,2.44-6.74,3.17-23.11,7.18-46.24,14.33-69.4,21.34-10.4,3.15-20.96,5.75-31.33,8.98-14.99,4.67-29.84,9.76-44.79,14.55-9.05,2.9-18.18,5.54-27.25,8.38-9.97,3.12-19.88,6.43-29.87,9.49-7.53,2.3-15.18,4.25-22.72,6.51-5.13,1.54-10.15,3.43-15.26,5.05-8.28,2.62-16.54,5.33-24.91,7.63-2.96,.81-3.62,2.11-2.3,4.5,2.03,3.69,4.23,7.31,6.48,10.87,6.85,10.86,13.73,21.7,20.67,32.5,6.08,9.46,12.35,18.81,18.37,28.31,7.98,12.58,15.7,25.33,23.72,37.88,7.8,12.22,15.99,24.2,23.73,36.46,5.91,9.35,11.27,19.05,17.1,28.45,5.04,8.13,10.48,16.02,15.6,24.11,6.35,10.01,12.5,20.15,18.82,30.18,6.35,10.08,12.79,20.11,19.22,30.14,8.98,14.03,17.98,28.05,27.57,43Z"/>
      <path class="cls-1" d="M162.28,219.44c5.32-3.49,10.61-7.03,15.97-10.45,10.71-6.84,21.41-13.69,32.19-20.41,15.3-9.55,30.76-18.85,45.98-28.53,9.52-6.05,18.55-12.86,28.11-18.84,16.56-10.35,33.44-20.19,50.05-30.47,9.99-6.19,19.71-12.81,29.57-19.2,2.05-1.33,4.34-2.32,6.28-3.8,3.03-2.31,2.71-4.84-.39-7.08-14.78-10.69-29.46-21.53-44.29-32.14-9.01-6.45-18.33-12.46-27.33-18.91-6.5-4.66-12.59-9.91-19.13-14.52-1.76-1.24-4.61-1.89-6.73-1.51-6.13,1.1-12.16,2.81-18.21,4.38-9.04,2.34-18.03,4.87-27.09,7.13-7.97,1.99-16.01,3.7-24.01,5.58-9.6,2.25-19.17,4.59-28.77,6.81-9.61,2.22-19.28,4.22-28.87,6.51-9.42,2.25-18.77,4.78-28.17,7.12-10.69,2.66-21.37,5.37-32.1,7.82-9.46,2.16-19.03,3.83-28.49,6-7.83,1.79-15.58,3.95-23.34,6.04-6.03,1.62-12,3.51-18.07,4.99-1.05,.26-2.45-.9-4.39-1.68,7.68-3.86,14.6-7.08,21.26-10.76,8.68-4.8,17.09-10.08,25.72-14.97,7.69-4.35,15.52-8.44,23.27-12.68,7.28-3.98,14.55-7.99,21.8-12.02,12.99-7.23,25.93-14.56,39-21.64,1.78-.96,4.18-1.09,6.29-1.09,74.16-.05,148.32,0,222.49-.12,5.12,0,8.66,2.57,12.4,5.18,9.33,6.51,18.68,12.99,27.91,19.63,7.26,5.21,14.31,10.72,21.56,15.94,4.64,3.34,9.56,6.29,14.21,9.6,4.99,3.56,9.76,7.43,14.75,11,4.66,3.33,9.54,6.36,14.24,9.64,7.56,5.3,15.03,10.74,22.59,16.05,6.41,4.5,12.9,8.89,19.33,13.35,1.6,1.11,3.14,2.32,5.75,4.27-4.34,1.86-7.73,3.63-11.31,4.78-7.19,2.3-14.52,4.16-21.73,6.4-7.17,2.23-14.24,4.75-21.39,7.04-9.05,2.9-18.12,5.7-27.19,8.52-6.74,2.09-13.5,4.08-20.22,6.21-7.18,2.28-14.32,4.68-21.5,7-6.09,1.96-12.2,3.84-18.28,5.81-4.02,1.3-7.98,2.8-12.03,4.03-12.55,3.82-25.18,7.35-37.66,11.36-10.9,3.51-21.61,7.64-32.48,11.23-5.13,1.69-10.51,2.63-15.7,4.15-6.43,1.89-12.78,4.05-19.17,6.08-7.33,2.33-14.68,4.59-21.99,6.98-9.67,3.16-19.27,6.5-28.96,9.6-9.17,2.94-18.43,5.58-27.59,8.53-6.51,2.1-12.91,4.51-19.38,6.73-1.31,.45-2.7,.67-4.05,.99-.24-.55-.48-1.11-.72-1.66Z"/>
      <path class="cls-1" d="M516.32,1.04c5.95,0,11.89,0,17.84,0,38.75-.01,77.5-.08,116.25,.08,2.72,.01,6.02,.96,8.05,2.66,11.83,9.87,23.25,20.22,35.01,30.18,10.4,8.8,21.09,17.25,31.57,25.94,4.98,4.13,9.77,8.5,14.69,12.71,8.43,7.2,16.93,14.32,25.34,21.55,10.15,8.72,20.23,17.52,30.36,26.26,1.22,1.05,2.59,1.94,5.26,3.93-4.08,1.13-7.15,2.19-10.3,2.81-7.73,1.51-15.5,2.84-23.25,4.21-6.67,1.18-13.34,2.41-20.03,3.46-12.7,2-25.46,3.67-38.12,5.87-11.32,1.97-22.54,4.53-33.84,6.68-6.29,1.2-12.65,2.03-18.96,3.15-8.42,1.5-16.81,3.17-25.24,4.66-6.5,1.15-13.03,2.07-19.53,3.24-12.43,2.24-24.82,4.72-37.27,6.83-9.6,1.63-19.3,2.69-28.9,4.3-5.78,.97-11.43,2.7-17.2,3.75-6.7,1.22-13.46,2.06-20.2,3.07-.23-.42-.46-.85-.68-1.27,4.2-2.78,8.34-5.64,12.6-8.33,9.28-5.86,18.62-11.63,27.93-17.44,8.61-5.38,17.2-10.79,25.83-16.14,10.96-6.79,21.96-13.5,32.92-20.29,11.8-7.31,23.54-14.72,35.37-21.98,2.78-1.7,2.28-3.62,.28-4.97-9.93-6.7-20.06-13.12-30.03-19.76-15.05-10.02-29.96-20.24-45.05-30.19-14.1-9.3-28.39-18.33-42.54-27.57-2.96-1.93-5.67-4.26-8.5-6.4,.11-.33,.22-.67,.34-1Z"/>
      <path class="cls-1" d="M.49,625.4c7.23,1.53,13.44,2.83,19.65,4.15,.8,.17,1.59,.49,2.4,.57,14.83,1.51,29.69,2.81,44.49,4.57,8.17,.97,16.22,2.98,24.38,4.07,11.32,1.51,22.71,2.47,34.04,3.89,12.45,1.56,25.1,2.42,37.23,5.37,11.36,2.76,22.8,3.44,34.25,4.9,17.04,2.17,34.01,4.97,51.03,7.35,10.25,1.44,20.54,2.6,31.19,5.1-1.8,.59-3.59,1.64-5.4,1.69-14.95,.45-29.9,.85-44.86,1.01-27.76,.29-55.53,.2-83.29,.62-35.36,.53-70.71,1.36-106.06,2.18-11.59,.27-23.17,1.02-34.76,1.27-1.41,.03-4.08-1.7-4.1-2.66-.27-14.09-.18-28.19-.18-44.09Z"/>
      <path class="cls-1" d="M1.89,393.98c6.95,7.88,13.79,15.87,20.88,23.62,4.6,5.02,9.57,9.69,14.4,14.5,1.5,1.49,3.21,2.81,4.51,4.45,1.87,2.35,1.95,4.46-.76,6.72-11.89,9.9-23.58,20.04-35.42,29.99-1.2,1.01-2.93,1.38-4.77,2.21v-80.81c.39-.23,.78-.46,1.17-.68Z"/>
      <path class="cls-1" d="M0,1.27H12.46c.09,.42,.17,.84,.26,1.26-3.71,.78-7.4,1.64-11.14,2.2-.29,.04-.89-1.93-1.57-3.46Z"/>
    </g>
  </g>
</svg>