<?xml version="1.0" encoding="UTF-8"?>
<svg id="Layer_2" data-name="Layer 2" xmlns="http://www.w3.org/2000/svg" viewBox="0 0 91.6 86.44">
  <defs>
    <style>
      .cls-1 {
        fill: #fff;
      }

      .cls-2 {
        opacity: .88;
      }
    </style>
  </defs>
  <g id="Layer_1-2" data-name="Layer 1">
    <g>
      <rect class="cls-1" y="71.19" width="91.6" height=".88"/>
      <g>
        <g id="g7128">
          <g id="path7130" class="cls-2">
            <path class="cls-1" d="M47.48,7.66c-.11,0-.21-.08-.24-.19-.03-.13,.06-.26,.19-.28L83.96,0c.13-.03,.26,.06,.28,.19,.03,.13-.06,.26-.19,.28L47.52,7.65s-.03,0-.05,0Z"/>
          </g>
          <g id="path7132" class="cls-2">
            <path class="cls-1" d="M47.49,8.24c-.13,0-.23-.1-.24-.23,0-.13,.09-.25,.23-.26l35.24-2.15c.12,0,.25,.09,.25,.23s-.09,.25-.23,.26l-35.24,2.15h-.01Z"/>
          </g>
          <g id="path7134" class="cls-2">
            <path class="cls-1" d="M76.91,9.24h0l-29.35-.26c-.13,0-.24-.11-.24-.24,0-.13,.11-.24,.24-.24h0l29.35,.26c.13,0,.24,.11,.24,.24,0,.13-.11,.24-.24,.24Z"/>
          </g>
          <g id="path7136" class="cls-2">
            <path class="cls-1" d="M73.57,11.7h-.02l-26.09-1.6c-.13,0-.23-.12-.23-.26s.13-.22,.25-.23l26.09,1.6c.13,0,.23,.12,.23,.26,0,.13-.11,.23-.24,.23Z"/>
          </g>
          <g id="path7138" class="cls-2">
            <path class="cls-1" d="M70.37,14.11s-.02,0-.03,0l-22.88-3.13c-.13-.02-.22-.14-.21-.27,.02-.13,.14-.22,.27-.21l22.88,3.13c.13,.02,.22,.14,.21,.27-.02,.12-.12,.21-.24,.21Z"/>
          </g>
          <g id="path7140" class="cls-2">
            <path class="cls-1" d="M64.76,15.71s-.04,0-.06,0l-17.19-4.09c-.13-.03-.21-.16-.18-.29s.16-.21,.29-.18l17.19,4.09c.13,.03,.21,.16,.18,.29-.03,.11-.12,.18-.23,.18Z"/>
          </g>
          <g id="path7142" class="cls-2">
            <path class="cls-1" d="M60.75,16.51s-.05,0-.07-.01l-13.18-4.31c-.13-.04-.19-.18-.15-.3,.04-.13,.18-.19,.3-.15l13.18,4.31c.13,.04,.19,.18,.15,.3-.03,.1-.13,.17-.23,.17Z"/>
          </g>
        </g>
        <g id="g7119">
          <g id="path1453" class="cls-2">
            <path class="cls-1" d="M44.06,7.66s-.03,0-.05,0L7.48,.48c-.13-.03-.22-.15-.19-.28,.03-.13,.16-.22,.28-.19L44.11,7.18c.13,.03,.22,.15,.19,.28-.02,.12-.12,.19-.24,.19Z"/>
          </g>
          <g id="path1455" class="cls-2">
            <path class="cls-1" d="M44.04,8.24h-.01L8.79,6.09c-.13,0-.23-.12-.23-.26s.13-.23,.25-.23l35.24,2.15c.13,0,.23,.12,.23,.26,0,.13-.11,.23-.24,.23Z"/>
          </g>
          <g id="path1457" class="cls-2">
            <path class="cls-1" d="M14.62,9.24c-.13,0-.24-.11-.24-.24,0-.13,.11-.24,.24-.24l29.35-.26h0c.13,0,.24,.11,.24,.24,0,.13-.11,.24-.24,.24l-29.35,.26h0Z"/>
          </g>
          <g id="path1459" class="cls-2">
            <path class="cls-1" d="M17.96,11.7c-.13,0-.23-.1-.24-.23,0-.13,.09-.25,.23-.26l26.09-1.6c.13,0,.25,.09,.25,.23s-.09,.25-.23,.26l-26.09,1.6h-.02Z"/>
          </g>
          <g id="path1461" class="cls-2">
            <path class="cls-1" d="M21.17,14.11c-.12,0-.22-.09-.24-.21-.02-.13,.07-.25,.21-.27l22.88-3.13c.13-.02,.25,.07,.27,.21s-.07,.25-.21,.27l-22.88,3.13s-.02,0-.03,0Z"/>
          </g>
          <g id="path1463" class="cls-2">
            <path class="cls-1" d="M26.78,15.71c-.11,0-.21-.07-.23-.18-.03-.13,.05-.26,.18-.29l17.19-4.09c.13-.03,.26,.05,.29,.18,.03,.13-.05,.26-.18,.29l-17.19,4.09s-.04,0-.06,0Z"/>
          </g>
          <g id="path1465" class="cls-2">
            <path class="cls-1" d="M30.79,16.51c-.1,0-.2-.06-.23-.17-.04-.13,.03-.26,.15-.3l13.18-4.31c.13-.04,.26,.03,.3,.15,.04,.13-.03,.26-.15,.3l-13.18,4.31s-.05,.01-.07,.01Z"/>
          </g>
        </g>
      </g>
      <g>
        <path class="cls-1" d="M7.81,79.7c-.25,0-.46-.04-.63-.11-.17-.07-.31-.16-.42-.28-.11-.12-.19-.25-.24-.39-.05-.15-.07-.29-.07-.44,0-.19,.03-.37,.1-.54s.15-.32,.27-.45c.11-.13,.25-.23,.41-.31s.33-.11,.52-.11c.17,0,.33,.03,.48,.09,.14,.06,.27,.14,.37,.25s.18,.23,.24,.38,.08,.31,.08,.49v.72h.43c.06,0,.1,.02,.12,.05,.03,.03,.04,.07,.04,.12v.37s-.01,.07-.04,.11c-.03,.04-.07,.06-.12,.06h-1.53Zm-.92-3.36c0-.1,.03-.18,.1-.25,.07-.07,.16-.1,.26-.1s.19,.03,.26,.1c.07,.07,.1,.15,.1,.25s-.03,.18-.1,.25c-.07,.07-.16,.1-.26,.1s-.19-.03-.26-.1c-.07-.07-.1-.15-.1-.25Zm1.33,2.66v-.54c0-.23-.04-.41-.13-.53-.09-.12-.22-.19-.39-.19-.07,0-.14,.02-.21,.05-.07,.03-.13,.07-.18,.13-.05,.05-.1,.12-.13,.2-.03,.08-.05,.16-.05,.26,0,.11,.02,.21,.05,.29,.04,.08,.08,.14,.15,.19s.13,.09,.21,.11c.08,.02,.16,.03,.25,.03h.43Zm-.38-2.66c0-.1,.03-.18,.1-.25,.07-.07,.16-.1,.26-.1s.19,.03,.26,.1c.07,.07,.1,.15,.1,.25s-.03,.18-.1,.25c-.07,.07-.16,.1-.26,.1s-.19-.03-.26-.1c-.07-.07-.1-.15-.1-.25Z"/>
        <path class="cls-1" d="M9.3,79.7c-.06,0-.1-.02-.12-.05-.02-.03-.04-.07-.04-.11v-.36s.01-.09,.04-.13c.03-.04,.07-.06,.12-.06h.83v-1.71h.69v2.42h-1.52Zm.05,.76c0-.1,.03-.18,.1-.25,.07-.07,.16-.1,.26-.1s.19,.03,.26,.1c.07,.07,.1,.15,.1,.25s-.03,.19-.1,.25c-.07,.07-.16,.1-.26,.1s-.19-.03-.26-.1c-.07-.07-.1-.15-.1-.25Zm.94,0c0-.1,.03-.18,.1-.25,.07-.07,.16-.1,.26-.1s.19,.03,.26,.1c.07,.07,.1,.15,.1,.25s-.03,.19-.1,.25c-.07,.07-.16,.1-.26,.1s-.19-.03-.26-.1c-.07-.07-.1-.15-.1-.25Z"/>
        <path class="cls-1" d="M12.88,79.6c0,.18-.02,.35-.07,.51-.05,.16-.12,.3-.22,.41-.1,.12-.22,.21-.36,.28-.14,.07-.31,.1-.49,.1-.08,0-.15,0-.21,0-.06,0-.12-.01-.17-.02-.03,0-.06,0-.08-.01-.03,0-.05-.01-.08-.02l.08-.69,.17,.04s.1,.02,.15,.02c.05,0,.1,0,.15,0,.18,0,.3-.06,.36-.17,.06-.11,.09-.28,.09-.5v-2.26h.69v2.32Z"/>
        <path class="cls-1" d="M16.41,79.7c-.17,0-.31-.04-.42-.12-.11-.08-.19-.17-.26-.28-.07,.13-.17,.22-.29,.29-.13,.07-.27,.1-.43,.1h-1.43v-.7h1.38c.09,0,.16-.02,.19-.07,.03-.05,.05-.13,.05-.23,0-.16,0-.3-.02-.43-.01-.12-.04-.22-.09-.3-.05-.08-.12-.14-.22-.18-.1-.04-.23-.06-.39-.06h-.58v-.67h.72c.23,0,.43,.03,.6,.1,.16,.07,.29,.16,.39,.28s.17,.26,.21,.42c.04,.16,.06,.33,.06,.52,0,.21,.04,.36,.13,.47s.22,.16,.42,.16h.22c.06,0,.1,.02,.13,.05,.02,.03,.04,.07,.04,.12v.37s-.01,.07-.04,.11c-.03,.04-.07,.06-.12,.06h-.23Z"/>
        <path class="cls-1" d="M16.6,79.7c-.07,0-.11-.02-.13-.05-.02-.03-.03-.07-.03-.11v-.36s.01-.09,.04-.13c.03-.04,.07-.06,.12-.06h.58c.09,0,.15-.03,.18-.09s.05-.13,.05-.23v-1.4h.69v1.15c0,.16,.04,.3,.12,.4,.08,.11,.22,.16,.42,.16h.21c.07,0,.11,.02,.13,.05,.02,.03,.03,.07,.03,.12v.37s-.01,.07-.04,.11c-.03,.04-.07,.06-.12,.06h-.23c-.18,0-.32-.04-.43-.13-.11-.08-.19-.18-.25-.28-.07,.12-.17,.21-.29,.29-.12,.08-.27,.12-.44,.12h-.61Zm.79-3.36c0-.1,.04-.18,.11-.25,.07-.07,.16-.1,.26-.1s.19,.03,.26,.1c.07,.07,.11,.15,.11,.25s-.04,.18-.11,.25c-.07,.07-.16,.1-.26,.1s-.19-.03-.26-.1c-.07-.07-.11-.15-.11-.25Z"/>
        <path class="cls-1" d="M18.81,79.7c-.06,0-.1-.02-.13-.05-.02-.03-.04-.07-.04-.11v-.36s.01-.09,.04-.13c.03-.04,.07-.06,.12-.06h1.62c.1,0,.16-.03,.19-.08,.03-.05,.05-.13,.05-.22,0-.17,0-.32-.02-.43-.01-.12-.04-.21-.09-.28-.05-.07-.12-.12-.21-.15-.09-.03-.22-.04-.38-.04h-.77v-.61l1.18-1.87,.57,.38-.93,1.43h.08c.19,0,.36,.02,.51,.06,.15,.04,.29,.11,.4,.21,.11,.1,.2,.22,.26,.38,.06,.16,.09,.35,.09,.59,0,.23,.05,.39,.14,.49,.09,.1,.22,.14,.41,.14h.22c.06,0,.1,.02,.12,.05s.04,.07,.04,.12v.37s-.01,.07-.04,.11c-.03,.04-.07,.06-.12,.06h-.24c-.18,0-.32-.04-.42-.12s-.18-.17-.24-.27c-.07,.12-.17,.22-.3,.29-.13,.07-.28,.11-.44,.11h-1.67Z"/>
        <path class="cls-1" d="M22.09,79.7c-.06,0-.1-.02-.13-.05-.02-.03-.04-.07-.04-.11v-.36s.01-.09,.04-.13c.03-.04,.07-.06,.12-.06h1.04c.09,0,.15-.03,.18-.09,.03-.06,.04-.13,.04-.23v-.83h.69v.59c0,.16,.04,.3,.12,.4,.08,.11,.22,.16,.42,.16h.15c.09,0,.15-.03,.18-.08,.03-.05,.04-.13,.04-.24v-1.07h.69v.83c0,.16,.04,.3,.12,.4,.08,.11,.22,.16,.42,.16h.36v-1.71h.69v2.42h-1.06c-.17,0-.31-.04-.41-.12-.11-.08-.19-.18-.24-.28-.07,.13-.17,.23-.3,.3-.13,.07-.28,.1-.45,.1h-.19c-.18,0-.33-.04-.43-.12-.11-.08-.19-.17-.24-.27-.07,.13-.17,.22-.3,.29-.13,.07-.29,.1-.47,.1h-1.04Z"/>
        <path class="cls-1" d="M31.31,75.35v4.35h-3.41v-.7h1.24v-2.51h.69v2.51h.78v-3.64h.69Z"/>
        <path class="cls-1" d="M32.31,75.35h.69v4.35h-.69v-4.35Z"/>
        <path class="cls-1" d="M36.32,79.7c-.25,0-.46-.04-.63-.11-.17-.07-.31-.16-.42-.28-.11-.12-.19-.25-.24-.39-.05-.15-.07-.29-.07-.44,0-.19,.03-.37,.1-.54s.15-.32,.27-.45c.11-.13,.25-.23,.41-.31s.33-.11,.52-.11c.17,0,.33,.03,.48,.09,.14,.06,.27,.14,.37,.25s.18,.23,.24,.38,.08,.31,.08,.49v.72h.43c.06,0,.1,.02,.12,.05,.03,.03,.04,.07,.04,.12v.37s-.01,.07-.04,.11c-.03,.04-.07,.06-.12,.06h-1.53Zm-.92-3.36c0-.1,.03-.18,.1-.25,.07-.07,.16-.1,.26-.1s.19,.03,.26,.1c.07,.07,.1,.15,.1,.25s-.03,.18-.1,.25c-.07,.07-.16,.1-.26,.1s-.19-.03-.26-.1c-.07-.07-.1-.15-.1-.25Zm1.33,2.66v-.54c0-.23-.04-.41-.13-.53-.09-.12-.22-.19-.39-.19-.07,0-.14,.02-.21,.05-.07,.03-.13,.07-.18,.13-.05,.05-.1,.12-.13,.2-.03,.08-.05,.16-.05,.26,0,.11,.02,.21,.05,.29,.04,.08,.08,.14,.15,.19s.13,.09,.21,.11c.08,.02,.16,.03,.25,.03h.43Zm-.38-2.66c0-.1,.03-.18,.1-.25,.07-.07,.16-.1,.26-.1s.19,.03,.26,.1c.07,.07,.1,.15,.1,.25s-.03,.18-.1,.25c-.07,.07-.16,.1-.26,.1s-.19-.03-.26-.1c-.07-.07-.1-.15-.1-.25Z"/>
        <path class="cls-1" d="M37.81,79.7c-.06,0-.1-.02-.13-.05-.02-.03-.04-.07-.04-.11v-.36s.01-.09,.04-.13c.03-.04,.07-.06,.12-.06h.62c.09,0,.17,0,.24-.01,.07,0,.13-.02,.18-.03-.07-.07-.15-.15-.22-.23-.07-.09-.14-.17-.2-.25-.06-.08-.11-.16-.16-.24-.04-.07-.07-.14-.09-.19l-.02-.49c.09-.07,.19-.14,.3-.21,.11-.06,.23-.12,.36-.17,.13-.05,.26-.09,.39-.12,.13-.03,.27-.04,.4-.04,.21,0,.38,.02,.53,.06,.15,.04,.27,.1,.37,.17,.1,.07,.17,.14,.22,.23,.05,.08,.07,.16,.07,.24,0,.17-.04,.36-.13,.57-.09,.21-.26,.44-.52,.68,.08,.01,.23,.02,.43,.02h.52c.06,0,.11,.02,.13,.05,.02,.03,.04,.07,.04,.12v.37s-.01,.07-.04,.11c-.03,.04-.07,.06-.13,.06h-.53c-.27,0-.5-.03-.68-.09-.18-.06-.32-.11-.42-.17-.15,.09-.32,.15-.5,.19-.18,.04-.36,.06-.53,.06h-.62Zm1.79-2c-.13,0-.28,.02-.43,.05-.15,.03-.27,.08-.36,.14,.02,.04,.05,.09,.09,.16,.04,.07,.1,.14,.16,.22,.06,.08,.13,.16,.21,.24,.07,.08,.15,.14,.23,.19,.09-.05,.17-.12,.25-.19,.08-.07,.15-.15,.2-.22,.06-.08,.1-.15,.13-.22,.03-.07,.05-.14,.05-.19,0-.03-.02-.06-.05-.08-.03-.02-.07-.04-.13-.05-.05-.01-.11-.02-.17-.03-.06,0-.13,0-.19,0Z"/>
        <path class="cls-1" d="M41.06,79.7c-.06,0-.1-.02-.13-.05-.02-.03-.04-.07-.04-.11v-.36s.01-.09,.04-.13c.03-.04,.07-.06,.12-.06h.24c.25,0,.38-.19,.38-.57,0-.19,.03-.37,.09-.54,.06-.17,.15-.31,.26-.43,.11-.12,.25-.21,.4-.28,.15-.07,.32-.1,.5-.1,.2,0,.38,.03,.53,.1,.15,.07,.28,.16,.38,.28,.1,.12,.17,.27,.22,.44,.05,.17,.07,.36,.07,.56,0,.16-.02,.31-.06,.46-.04,.15-.11,.28-.21,.4-.1,.12-.22,.21-.37,.28s-.34,.1-.56,.1c-.09,0-.18,0-.27-.02-.09,0-.18-.03-.26-.06-.09-.03-.17-.07-.25-.13s-.15-.12-.22-.21c-.06,.14-.14,.25-.25,.31-.11,.07-.22,.1-.34,.1h-.28Zm1.86-.67c.19,0,.33-.06,.42-.18,.09-.12,.14-.26,.14-.42,0-.11-.02-.2-.05-.29-.03-.09-.07-.16-.12-.22-.05-.06-.11-.11-.18-.14-.07-.03-.14-.05-.21-.05-.08,0-.15,.02-.22,.05-.07,.03-.13,.08-.18,.14-.05,.06-.09,.13-.12,.22-.03,.08-.05,.18-.05,.29,0,.16,.04,.3,.13,.42s.23,.18,.43,.18Z"/>
        <path class="cls-1" d="M44.94,75.35h.69v3.64h.41c.06,0,.11,.02,.13,.05s.04,.07,.04,.12v.37s-.01,.07-.04,.11-.07,.06-.13,.06h-1.11v-4.35Z"/>
        <path class="cls-1" d="M47.64,78.31c-.02-.21-.07-.35-.15-.43-.08-.08-.2-.12-.35-.12-.08,0-.19,.01-.32,.04-.13,.03-.25,.07-.37,.13l-.18-.67s.11-.04,.19-.07c.08-.02,.16-.05,.25-.07,.09-.02,.18-.04,.27-.05s.19-.02,.28-.02c.17,0,.32,.03,.45,.08,.13,.05,.23,.13,.32,.23,.09,.1,.15,.22,.2,.36,.05,.14,.08,.29,.1,.45,0,.08,.02,.16,.03,.24s.03,.16,.06,.23,.07,.15,.12,.21c.05,.06,.12,.12,.2,.17v.67h-2.74c-.06,0-.1-.02-.13-.05-.02-.03-.04-.07-.04-.11v-.36s.01-.09,.04-.13c.03-.04,.07-.06,.12-.06h1.89s-.09-.12-.15-.23c-.06-.11-.1-.26-.12-.45Zm-.55,2.15c0-.1,.04-.18,.11-.25,.07-.07,.16-.1,.26-.1s.19,.03,.26,.1c.07,.07,.11,.15,.11,.25s-.04,.19-.11,.25c-.07,.07-.16,.1-.26,.1s-.19-.03-.26-.1c-.07-.07-.11-.15-.11-.25Z"/>
        <path class="cls-1" d="M52.27,78.51h-1.5v-.62h1.5v.62Z"/>
        <path class="cls-1" d="M57.91,79.7c-.11,0-.19-.02-.27-.05s-.13-.07-.18-.12c-.03,.26-.1,.47-.21,.66-.11,.18-.24,.33-.4,.45-.16,.12-.34,.2-.53,.26-.2,.05-.4,.08-.6,.08-.33,0-.61-.05-.83-.14-.22-.1-.39-.22-.53-.37-.13-.15-.22-.32-.28-.51-.05-.19-.08-.37-.08-.56,0-.19,.03-.39,.1-.6,.07-.21,.17-.39,.29-.55l.59,.33c-.09,.14-.16,.28-.2,.41-.04,.14-.06,.27-.06,.4,0,.1,.02,.2,.05,.3,.03,.1,.09,.2,.17,.28,.08,.09,.18,.15,.31,.21,.13,.05,.3,.08,.5,.08,.17,0,.32-.03,.45-.08,.13-.05,.24-.12,.32-.21,.09-.09,.15-.18,.19-.3,.04-.11,.06-.23,.06-.35,0-.17-.03-.36-.1-.57-.07-.21-.15-.4-.26-.58l.65-.37c.08,.16,.15,.31,.2,.46,.05,.15,.1,.27,.12,.38,.04,.13,.09,.22,.16,.27,.07,.05,.19,.07,.36,.07h.22c.06,0,.11,.02,.13,.05,.02,.03,.04,.07,.04,.12v.37s-.01,.07-.04,.11c-.03,.04-.07,.06-.13,.06h-.22Zm-2.44-2.76c0-.1,.04-.18,.11-.25,.07-.07,.16-.1,.26-.1s.19,.03,.26,.1c.07,.07,.11,.15,.11,.25s-.04,.18-.11,.25c-.07,.07-.16,.1-.26,.1s-.19-.03-.26-.1c-.07-.07-.11-.15-.11-.25Z"/>
        <path class="cls-1" d="M58.09,79.7c-.06,0-.1-.02-.12-.05-.02-.03-.04-.07-.04-.11v-.36s.01-.09,.04-.13c.03-.04,.07-.06,.12-.06h.83v-1.71h.69v2.42h-1.52Zm.05,.76c0-.1,.03-.18,.1-.25,.07-.07,.16-.1,.26-.1s.19,.03,.26,.1c.07,.07,.1,.15,.1,.25s-.03,.19-.1,.25c-.07,.07-.16,.1-.26,.1s-.19-.03-.26-.1c-.07-.07-.1-.15-.1-.25Zm.94,0c0-.1,.03-.18,.1-.25,.07-.07,.16-.1,.26-.1s.19,.03,.26,.1c.07,.07,.1,.15,.1,.25s-.03,.19-.1,.25c-.07,.07-.16,.1-.26,.1s-.19-.03-.26-.1c-.07-.07-.1-.15-.1-.25Z"/>
        <path class="cls-1" d="M63.15,79.7c-.17,0-.31-.04-.42-.12-.11-.08-.19-.17-.26-.28-.07,.13-.17,.22-.29,.29-.13,.07-.27,.1-.43,.1h-1.43v-.7h1.38c.09,0,.16-.02,.19-.07,.03-.05,.05-.13,.05-.23,0-.16,0-.3-.02-.43-.01-.12-.04-.22-.09-.3-.05-.08-.12-.14-.22-.18-.1-.04-.23-.06-.39-.06h-.58v-.67h.72c.23,0,.43,.03,.6,.1,.16,.07,.29,.16,.39,.28s.17,.26,.21,.42c.04,.16,.06,.33,.06,.52,0,.21,.04,.36,.13,.47s.22,.16,.42,.16h.22c.06,0,.1,.02,.13,.05,.02,.03,.04,.07,.04,.12v.37s-.01,.07-.04,.11c-.03,.04-.07,.06-.12,.06h-.23Z"/>
        <path class="cls-1" d="M66.45,79.7h-3.11c-.06,0-.1-.02-.13-.05-.02-.03-.04-.07-.04-.11v-.36s.01-.09,.04-.13c.03-.04,.07-.06,.12-.06h.8s-.07-.12-.1-.22c-.04-.1-.05-.24-.05-.4s.03-.33,.1-.49c.06-.16,.16-.3,.27-.42s.26-.22,.43-.29c.17-.07,.35-.11,.55-.11,.17,0,.33,.03,.47,.09,.14,.06,.26,.14,.35,.24,.1,.1,.17,.23,.22,.37,.05,.15,.08,.31,.08,.49v1.45Zm-.7-.7v-.78c0-.06,0-.11-.03-.17-.02-.06-.05-.11-.09-.15-.04-.05-.09-.08-.15-.11-.06-.03-.14-.04-.22-.04-.08,0-.15,.02-.22,.05-.07,.03-.13,.07-.19,.13-.05,.05-.1,.12-.13,.2-.03,.08-.05,.16-.05,.26,0,.15,.03,.26,.09,.34,.06,.08,.12,.15,.19,.19,.08,.05,.17,.08,.28,.09h.53Zm-.8-2.66c0-.1,.04-.18,.11-.25,.07-.07,.16-.1,.26-.1s.19,.03,.26,.1c.07,.07,.11,.15,.11,.25s-.04,.18-.11,.25c-.07,.07-.16,.1-.26,.1s-.19-.03-.26-.1c-.07-.07-.11-.15-.11-.25Z"/>
        <path class="cls-1" d="M67.32,75.35h.69v4.35h-.69v-4.35Z"/>
        <path class="cls-1" d="M71.26,79.7c-.01,.23-.06,.44-.14,.6-.08,.17-.19,.3-.33,.41-.14,.11-.3,.18-.49,.23-.19,.05-.39,.08-.61,.08-.09,0-.19,0-.29,0-.1,0-.21-.02-.33-.04l.05-.68c.12,.02,.23,.03,.33,.04s.2,.01,.27,.01c.11,0,.22,0,.32-.02,.1-.02,.19-.05,.27-.09,.08-.05,.14-.11,.19-.19,.05-.08,.07-.19,.08-.33h-.41c-.25,0-.46-.04-.63-.11-.17-.07-.31-.16-.42-.28-.11-.12-.19-.25-.23-.39-.05-.15-.07-.29-.07-.44,0-.19,.03-.37,.09-.54,.06-.17,.15-.32,.26-.45,.11-.13,.25-.23,.4-.31,.16-.07,.33-.11,.52-.11s.35,.03,.49,.09c.14,.06,.27,.14,.37,.25,.1,.11,.18,.23,.23,.38,.05,.15,.08,.31,.08,.49v.72h.6c.06,0,.11,.02,.13,.05,.02,.03,.04,.07,.04,.12v.37s-.01,.07-.04,.11c-.03,.04-.07,.06-.13,.06h-.6Zm-.69-.7v-.54c0-.23-.05-.41-.14-.53s-.22-.19-.38-.19c-.07,0-.14,.02-.21,.05-.07,.03-.13,.07-.18,.13-.05,.05-.1,.12-.13,.2-.03,.08-.05,.16-.05,.26,0,.11,.02,.21,.05,.29,.04,.08,.08,.14,.15,.19s.13,.09,.21,.11,.16,.03,.25,.03h.43Z"/>
        <path class="cls-1" d="M71.82,79.7c-.06,0-.1-.02-.12-.05-.02-.03-.03-.07-.03-.11v-.36s.01-.09,.04-.13c.02-.04,.06-.06,.12-.06h.72v-3.64h.69v4.35h-1.4Z"/>
        <path class="cls-1" d="M74.21,75.35h.69v4.35h-.69v-4.35Z"/>
        <path class="cls-1" d="M78.23,79.7c-.25,0-.46-.04-.63-.11-.17-.07-.31-.16-.42-.28-.11-.12-.19-.25-.24-.39-.05-.15-.07-.29-.07-.44,0-.19,.03-.37,.1-.54s.15-.32,.27-.45c.11-.13,.25-.23,.41-.31s.33-.11,.52-.11c.17,0,.33,.03,.48,.09,.14,.06,.27,.14,.37,.25s.18,.23,.24,.38,.08,.31,.08,.49v.72h.43c.06,0,.1,.02,.12,.05,.03,.03,.04,.07,.04,.12v.37s-.01,.07-.04,.11c-.03,.04-.07,.06-.12,.06h-1.53Zm-.92-3.36c0-.1,.03-.18,.1-.25,.07-.07,.16-.1,.26-.1s.19,.03,.26,.1c.07,.07,.1,.15,.1,.25s-.03,.18-.1,.25c-.07,.07-.16,.1-.26,.1s-.19-.03-.26-.1c-.07-.07-.1-.15-.1-.25Zm1.33,2.66v-.54c0-.23-.04-.41-.13-.53-.09-.12-.22-.19-.39-.19-.07,0-.14,.02-.21,.05-.07,.03-.13,.07-.18,.13-.05,.05-.1,.12-.13,.2-.03,.08-.05,.16-.05,.26,0,.11,.02,.21,.05,.29,.04,.08,.08,.14,.15,.19s.13,.09,.21,.11c.08,.02,.16,.03,.25,.03h.43Zm-.38-2.66c0-.1,.03-.18,.1-.25,.07-.07,.16-.1,.26-.1s.19,.03,.26,.1c.07,.07,.1,.15,.1,.25s-.03,.18-.1,.25c-.07,.07-.16,.1-.26,.1s-.19-.03-.26-.1c-.07-.07-.1-.15-.1-.25Z"/>
        <path class="cls-1" d="M79.72,79.7c-.07,0-.11-.02-.13-.05-.02-.03-.03-.07-.03-.11v-.36s.01-.09,.04-.13c.03-.04,.07-.06,.12-.06h.58c.09,0,.15-.03,.18-.09s.05-.13,.05-.23v-1.4h.69v1.15c0,.16,.04,.3,.12,.4,.08,.11,.22,.16,.42,.16h.21c.07,0,.11,.02,.13,.05,.02,.03,.03,.07,.03,.12v.37s-.01,.07-.04,.11c-.03,.04-.07,.06-.12,.06h-.23c-.18,0-.32-.04-.43-.13-.11-.08-.19-.18-.25-.28-.07,.12-.17,.21-.29,.29-.12,.08-.27,.12-.44,.12h-.61Zm.79-3.36c0-.1,.04-.18,.11-.25,.07-.07,.16-.1,.26-.1s.19,.03,.26,.1c.07,.07,.11,.15,.11,.25s-.04,.18-.11,.25c-.07,.07-.16,.1-.26,.1s-.19-.03-.26-.1c-.07-.07-.11-.15-.11-.25Z"/>
        <path class="cls-1" d="M85.01,79.53s-.01,.07-.04,.11c-.03,.04-.07,.06-.13,.06h-.12c-.13,0-.26-.03-.39-.08-.13-.05-.23-.12-.31-.19-.07,.11-.15,.19-.24,.22s-.18,.05-.26,.05h-1.59c-.06,0-.1-.02-.13-.05-.02-.03-.04-.07-.04-.11v-.36s.01-.09,.04-.13c.03-.04,.07-.06,.12-.06h1.79c-.04-.06-.07-.15-.1-.25-.03-.1-.05-.24-.07-.43-.02-.21-.07-.35-.16-.43-.09-.08-.2-.12-.34-.12-.08,0-.18,.01-.31,.04-.13,.03-.25,.07-.38,.13l-.17-.66s.11-.04,.19-.06c.08-.02,.16-.05,.25-.07,.09-.02,.18-.04,.28-.06,.1-.02,.19-.02,.27-.02,.19,0,.36,.03,.49,.1,.13,.07,.24,.16,.32,.27,.08,.11,.14,.23,.19,.36,.04,.13,.07,.26,.08,.39,0,.08,.02,.17,.04,.26,.02,.1,.04,.18,.08,.27,.03,.08,.07,.15,.13,.21,.05,.06,.12,.09,.2,.09h.14c.06,0,.11,.02,.13,.05,.02,.03,.04,.07,.04,.12v.37Zm-2.22,.93c0-.1,.04-.18,.11-.25,.07-.07,.16-.1,.26-.1s.19,.03,.26,.1c.07,.07,.11,.15,.11,.25s-.04,.19-.11,.25c-.07,.07-.16,.1-.26,.1s-.19-.03-.26-.1c-.07-.07-.11-.15-.11-.25Z"/>
        <path class="cls-1" d="M84.8,79.7c-.06,0-.1-.02-.12-.05-.02-.03-.03-.07-.03-.11v-.36s.01-.09,.04-.13c.02-.04,.06-.06,.12-.06h.72v-3.64h.69v4.35h-1.4Z"/>
      </g>
      <g>
        <path class="cls-1" d="M2.95,82.61h1.9v.46h-1.39v.7h1.31v.46h-1.31v.78h1.46v.46h-1.97v-2.86Z"/>
        <path class="cls-1" d="M5.88,84.43l-.67-.9h.59l.39,.58,.42-.58h.55l-.66,.9,.78,1.04h-.59l-.51-.7-.51,.7h-.57l.78-1.04Z"/>
        <path class="cls-1" d="M7.55,83.53h.46v.29h0c.07-.12,.16-.21,.28-.26s.25-.08,.38-.08c.15,0,.28,.03,.4,.08,.12,.05,.22,.12,.3,.22,.08,.09,.15,.2,.19,.32s.06,.26,.06,.4-.02,.28-.07,.4-.11,.23-.19,.32-.18,.16-.3,.22c-.12,.05-.24,.08-.38,.08-.09,0-.17,0-.24-.03-.07-.02-.13-.04-.19-.07-.05-.03-.1-.06-.14-.1-.04-.03-.07-.07-.09-.1h-.01v1.17h-.49v-2.86Zm1.61,.97c0-.08-.01-.15-.04-.22-.03-.07-.06-.13-.11-.19s-.11-.1-.18-.13-.15-.05-.24-.05-.17,.02-.24,.05-.13,.08-.18,.13-.09,.12-.11,.19c-.03,.07-.04,.14-.04,.22s.01,.15,.04,.22c.03,.07,.06,.13,.11,.19s.11,.1,.18,.13,.15,.05,.24,.05,.17-.02,.24-.05,.13-.08,.18-.13,.09-.12,.11-.19c.03-.07,.04-.14,.04-.22Z"/>
        <path class="cls-1" d="M11.31,85.21h-.01c-.07,.11-.16,.19-.27,.24-.11,.05-.23,.07-.36,.07-.09,0-.18-.01-.26-.04-.08-.02-.16-.06-.23-.11-.07-.05-.12-.11-.16-.18-.04-.07-.06-.16-.06-.25,0-.1,.02-.19,.06-.27,.04-.07,.09-.14,.15-.19,.06-.05,.14-.09,.22-.12,.08-.03,.17-.05,.26-.07s.18-.02,.27-.03c.09,0,.18,0,.26,0h.12v-.05c0-.12-.04-.21-.13-.27-.08-.06-.19-.09-.32-.09-.1,0-.2,.02-.29,.05-.09,.04-.17,.09-.23,.15l-.25-.25c.11-.11,.23-.19,.38-.24,.14-.05,.29-.07,.45-.07,.14,0,.25,.02,.35,.05s.17,.07,.23,.12c.06,.05,.11,.1,.14,.17,.03,.06,.06,.13,.07,.19,.01,.06,.02,.13,.03,.19,0,.06,0,.11,0,.16v1.12h-.44v-.27Zm-.03-.6h-.1c-.07,0-.14,0-.23,0-.08,0-.16,.02-.24,.04-.07,.02-.14,.05-.19,.09-.05,.04-.08,.09-.08,.16,0,.05,.01,.08,.03,.12s.05,.06,.08,.08,.07,.04,.11,.05c.04,0,.08,.01,.12,.01,.17,0,.29-.04,.37-.12,.08-.08,.12-.19,.12-.33v-.11Z"/>
        <path class="cls-1" d="M12.04,83.94v-.41h.4v-.56h.49v.56h.53v.41h-.53v.85c0,.1,.02,.17,.05,.23,.04,.06,.11,.08,.22,.08,.04,0,.09,0,.14-.01,.05,0,.09-.02,.12-.05v.41c-.05,.02-.11,.04-.19,.05-.07,0-.14,.01-.2,.01-.13,0-.24-.01-.32-.04-.08-.03-.15-.07-.19-.13-.05-.06-.08-.13-.1-.22s-.03-.19-.03-.3v-.89h-.4Z"/>
        <path class="cls-1" d="M13.84,83.53h.49v.31h0c.05-.11,.13-.2,.23-.26,.1-.06,.21-.09,.34-.09,.03,0,.06,0,.09,0,.03,0,.06,.01,.09,.02v.47s-.08-.02-.12-.03c-.04,0-.08-.01-.12-.01-.11,0-.2,.02-.27,.06s-.12,.09-.16,.14c-.04,.05-.06,.11-.07,.16s-.02,.09-.02,.12v1.04h-.49v-1.94Z"/>
        <path class="cls-1" d="M15.35,82.87c0-.08,.03-.15,.09-.2,.06-.06,.13-.09,.22-.09s.16,.03,.22,.08,.09,.12,.09,.21-.03,.15-.09,.21c-.06,.06-.14,.08-.22,.08s-.16-.03-.22-.09c-.06-.06-.09-.13-.09-.2Zm.07,.66h.49v1.94h-.49v-1.94Z"/>
        <path class="cls-1" d="M17.68,85.21h-.01c-.07,.11-.16,.19-.27,.24-.11,.05-.23,.07-.36,.07-.09,0-.18-.01-.26-.04-.08-.02-.16-.06-.23-.11-.07-.05-.12-.11-.16-.18-.04-.07-.06-.16-.06-.25,0-.1,.02-.19,.06-.27,.04-.07,.09-.14,.15-.19,.06-.05,.14-.09,.22-.12,.08-.03,.17-.05,.26-.07s.18-.02,.27-.03c.09,0,.18,0,.26,0h.12v-.05c0-.12-.04-.21-.13-.27-.08-.06-.19-.09-.32-.09-.1,0-.2,.02-.29,.05-.09,.04-.17,.09-.23,.15l-.25-.25c.11-.11,.23-.19,.38-.24,.14-.05,.29-.07,.45-.07,.14,0,.25,.02,.35,.05s.17,.07,.23,.12c.06,.05,.11,.1,.14,.17,.03,.06,.06,.13,.07,.19,.01,.06,.02,.13,.03,.19,0,.06,0,.11,0,.16v1.12h-.44v-.27Zm-.03-.6h-.1c-.07,0-.14,0-.23,0-.08,0-.16,.02-.24,.04-.07,.02-.14,.05-.19,.09-.05,.04-.08,.09-.08,.16,0,.05,.01,.08,.03,.12s.05,.06,.08,.08,.07,.04,.11,.05c.04,0,.08,.01,.12,.01,.17,0,.29-.04,.37-.12,.08-.08,.12-.19,.12-.33v-.11Z"/>
        <path class="cls-1" d="M18.41,83.94v-.41h.4v-.56h.49v.56h.53v.41h-.53v.85c0,.1,.02,.17,.05,.23,.04,.06,.11,.08,.22,.08,.04,0,.09,0,.14-.01,.05,0,.09-.02,.12-.05v.41c-.05,.02-.11,.04-.19,.05-.07,0-.14,.01-.2,.01-.13,0-.24-.01-.32-.04-.08-.03-.15-.07-.19-.13-.05-.06-.08-.13-.1-.22s-.03-.19-.03-.3v-.89h-.4Z"/>
        <path class="cls-1" d="M20.59,84.67c.02,.15,.07,.26,.17,.34,.1,.08,.21,.12,.35,.12,.12,0,.22-.02,.31-.07,.08-.05,.15-.11,.22-.19l.35,.26c-.11,.14-.24,.24-.38,.3-.14,.06-.29,.09-.44,.09-.15,0-.28-.02-.41-.07s-.24-.12-.34-.21c-.09-.09-.17-.2-.22-.32-.06-.13-.08-.26-.08-.42s.03-.29,.08-.42c.06-.13,.13-.23,.22-.32,.09-.09,.21-.16,.34-.21s.27-.07,.41-.07c.13,0,.26,.02,.37,.07,.11,.05,.21,.12,.29,.2,.08,.09,.14,.2,.19,.33,.04,.13,.07,.28,.07,.45v.13h-1.48Zm.99-.36c0-.15-.05-.26-.13-.34s-.21-.12-.36-.12c-.15,0-.26,.04-.35,.13-.08,.08-.14,.2-.16,.34h.99Z"/>
        <path class="cls-1" d="M23.56,84.07c-.09-.13-.22-.2-.38-.2-.06,0-.13,.02-.19,.05s-.09,.08-.09,.16c0,.06,.03,.1,.08,.13s.12,.05,.19,.07c.08,.02,.16,.04,.25,.06,.09,.02,.17,.05,.25,.09,.08,.04,.14,.1,.19,.17,.05,.07,.08,.17,.08,.3,0,.12-.02,.21-.07,.29-.05,.08-.11,.14-.19,.19-.08,.05-.17,.08-.27,.11-.1,.02-.2,.03-.3,.03-.15,0-.29-.02-.42-.06-.13-.04-.24-.12-.34-.23l.32-.3c.06,.07,.13,.13,.2,.17,.07,.04,.16,.07,.26,.07,.03,0,.07,0,.11-.01,.04,0,.07-.02,.11-.04,.03-.02,.06-.04,.08-.07s.03-.06,.03-.1c0-.07-.03-.12-.08-.15s-.12-.06-.19-.08c-.08-.02-.16-.04-.25-.06-.09-.02-.17-.05-.25-.08-.08-.04-.14-.09-.19-.16s-.08-.17-.08-.29c0-.11,.02-.2,.07-.28s.1-.14,.18-.2c.07-.05,.16-.09,.25-.11,.09-.02,.19-.04,.29-.04,.13,0,.26,.02,.38,.07,.13,.04,.23,.12,.31,.23l-.32,.29Z"/>
        <path class="cls-1" d="M27.34,83.28c-.11-.11-.21-.19-.31-.23-.1-.04-.2-.06-.3-.06-.15,0-.28,.03-.4,.08-.12,.05-.22,.13-.31,.22-.09,.09-.15,.2-.2,.33-.05,.12-.07,.26-.07,.4,0,.15,.02,.3,.07,.42,.05,.13,.11,.24,.2,.34,.09,.09,.19,.17,.31,.22,.12,.05,.25,.08,.4,.08,.12,0,.23-.03,.34-.08,.11-.06,.21-.14,.31-.26l.42,.3c-.13,.18-.29,.31-.47,.39-.19,.08-.38,.12-.59,.12-.22,0-.42-.04-.61-.11-.18-.07-.34-.17-.48-.3s-.24-.29-.31-.47-.11-.39-.11-.61,.04-.44,.11-.62,.18-.35,.31-.48c.13-.13,.29-.23,.48-.31,.18-.07,.39-.11,.61-.11,.19,0,.37,.03,.54,.1,.16,.07,.32,.19,.46,.35l-.4,.29Z"/>
        <path class="cls-1" d="M28,84.5c0-.15,.03-.29,.08-.42,.06-.13,.13-.23,.22-.32,.09-.09,.21-.16,.34-.21s.27-.07,.41-.07,.28,.02,.41,.07,.24,.12,.34,.21,.17,.2,.22,.32c.06,.13,.08,.26,.08,.42s-.03,.29-.08,.42c-.06,.13-.13,.23-.22,.32-.09,.09-.21,.16-.34,.21s-.27,.07-.41,.07-.28-.02-.41-.07-.24-.12-.34-.21c-.09-.09-.17-.2-.22-.32-.06-.13-.08-.26-.08-.42Zm.49,0c0,.08,.01,.15,.04,.22,.03,.07,.06,.13,.11,.19,.05,.05,.11,.1,.18,.13,.07,.03,.15,.05,.24,.05s.17-.02,.24-.05,.13-.08,.18-.13,.09-.12,.11-.19,.04-.14,.04-.22-.01-.15-.04-.22-.06-.13-.11-.19-.11-.1-.18-.13-.15-.05-.24-.05-.17,.02-.24,.05c-.07,.03-.13,.08-.18,.13-.05,.05-.09,.12-.11,.19-.03,.07-.04,.14-.04,.22Z"/>
        <path class="cls-1" d="M30.55,83.53h.46v.3h0c.04-.09,.11-.17,.21-.24,.1-.07,.22-.11,.39-.11,.3,0,.5,.12,.61,.36,.07-.12,.16-.21,.26-.27,.11-.06,.23-.09,.38-.09,.13,0,.24,.02,.33,.06s.16,.1,.22,.18c.06,.08,.09,.16,.12,.26s.04,.21,.04,.33v1.16h-.49v-1.1c0-.06,0-.12-.02-.17s-.03-.1-.06-.15-.06-.07-.11-.1c-.05-.02-.11-.04-.18-.04s-.14,.01-.19,.04c-.05,.03-.1,.07-.13,.11-.03,.05-.06,.1-.07,.16-.01,.06-.02,.12-.02,.18v1.05h-.49v-1.16c0-.12-.02-.22-.07-.29-.05-.07-.14-.11-.26-.11-.08,0-.15,.01-.2,.04-.06,.03-.1,.06-.14,.11-.04,.05-.06,.1-.08,.16s-.02,.12-.02,.19v1.06h-.49v-1.94Z"/>
        <path class="cls-1" d="M34.06,83.53h.46v.3h0c.04-.09,.11-.17,.21-.24,.1-.07,.22-.11,.39-.11,.3,0,.5,.12,.61,.36,.07-.12,.16-.21,.26-.27,.11-.06,.23-.09,.38-.09,.13,0,.24,.02,.33,.06s.16,.1,.22,.18c.06,.08,.09,.16,.12,.26s.04,.21,.04,.33v1.16h-.49v-1.1c0-.06,0-.12-.02-.17s-.03-.1-.06-.15-.06-.07-.11-.1c-.05-.02-.11-.04-.18-.04s-.14,.01-.19,.04c-.05,.03-.1,.07-.13,.11-.03,.05-.06,.1-.07,.16-.01,.06-.02,.12-.02,.18v1.05h-.49v-1.16c0-.12-.02-.22-.07-.29-.05-.07-.14-.11-.26-.11-.08,0-.15,.01-.2,.04-.06,.03-.1,.06-.14,.11-.04,.05-.06,.1-.08,.16s-.02,.12-.02,.19v1.06h-.49v-1.94Z"/>
        <path class="cls-1" d="M37.54,82.87c0-.08,.03-.15,.09-.2,.06-.06,.13-.09,.22-.09s.16,.03,.22,.08,.09,.12,.09,.21-.03,.15-.09,.21c-.06,.06-.14,.08-.22,.08s-.16-.03-.22-.09c-.06-.06-.09-.13-.09-.2Zm.07,.66h.49v1.94h-.49v-1.94Z"/>
        <path class="cls-1" d="M38.43,83.94v-.41h.4v-.56h.49v.56h.53v.41h-.53v.85c0,.1,.02,.17,.05,.23,.04,.06,.11,.08,.22,.08,.04,0,.09,0,.14-.01,.05,0,.09-.02,.12-.05v.41c-.05,.02-.11,.04-.19,.05-.07,0-.14,.01-.2,.01-.13,0-.24-.01-.32-.04-.08-.03-.15-.07-.19-.13-.05-.06-.08-.13-.1-.22s-.03-.19-.03-.3v-.89h-.4Z"/>
        <path class="cls-1" d="M40,83.94v-.41h.4v-.56h.49v.56h.53v.41h-.53v.85c0,.1,.02,.17,.05,.23,.04,.06,.11,.08,.22,.08,.04,0,.09,0,.14-.01,.05,0,.09-.02,.12-.05v.41c-.05,.02-.11,.04-.19,.05-.07,0-.14,.01-.2,.01-.13,0-.24-.01-.32-.04-.08-.03-.15-.07-.19-.13-.05-.06-.08-.13-.1-.22s-.03-.19-.03-.3v-.89h-.4Z"/>
        <path class="cls-1" d="M42.19,84.67c.02,.15,.07,.26,.17,.34,.1,.08,.21,.12,.35,.12,.12,0,.22-.02,.31-.07,.08-.05,.15-.11,.22-.19l.35,.26c-.11,.14-.24,.24-.38,.3-.14,.06-.29,.09-.44,.09-.15,0-.28-.02-.41-.07s-.24-.12-.34-.21c-.09-.09-.17-.2-.22-.32-.06-.13-.08-.26-.08-.42s.03-.29,.08-.42c.06-.13,.13-.23,.22-.32,.09-.09,.21-.16,.34-.21s.27-.07,.41-.07c.13,0,.26,.02,.37,.07,.11,.05,.21,.12,.29,.2,.08,.09,.14,.2,.19,.33,.04,.13,.07,.28,.07,.45v.13h-1.48Zm.99-.36c0-.15-.05-.26-.13-.34s-.21-.12-.36-.12c-.15,0-.26,.04-.35,.13-.08,.08-.14,.2-.16,.34h.99Z"/>
        <path class="cls-1" d="M44.51,84.67c.02,.15,.07,.26,.17,.34,.1,.08,.21,.12,.35,.12,.12,0,.22-.02,.31-.07,.08-.05,.15-.11,.22-.19l.35,.26c-.11,.14-.24,.24-.38,.3-.14,.06-.29,.09-.44,.09-.15,0-.28-.02-.41-.07s-.24-.12-.34-.21c-.09-.09-.17-.2-.22-.32-.06-.13-.08-.26-.08-.42s.03-.29,.08-.42c.06-.13,.13-.23,.22-.32,.09-.09,.21-.16,.34-.21s.27-.07,.41-.07c.13,0,.26,.02,.37,.07,.11,.05,.21,.12,.29,.2,.08,.09,.14,.2,.19,.33,.04,.13,.07,.28,.07,.45v.13h-1.48Zm.99-.36c0-.15-.05-.26-.13-.34s-.21-.12-.36-.12c-.15,0-.26,.04-.35,.13-.08,.08-.14,.2-.16,.34h.99Z"/>
        <path class="cls-1" d="M48.31,84.68h-1v-.41h1v.41Z"/>
        <path class="cls-1" d="M50.71,82.61h.44l1.23,2.86h-.58l-.27-.65h-1.24l-.26,.65h-.57l1.25-2.86Zm.65,1.77l-.44-1.16-.45,1.16h.89Z"/>
        <path class="cls-1" d="M52.66,82.42h.49v3.06h-.49v-3.06Z"/>
        <path class="cls-1" d="M54.09,84.67c.02,.15,.07,.26,.17,.34,.1,.08,.21,.12,.35,.12,.12,0,.22-.02,.31-.07,.08-.05,.15-.11,.22-.19l.35,.26c-.11,.14-.24,.24-.38,.3-.14,.06-.29,.09-.44,.09-.15,0-.28-.02-.41-.07s-.24-.12-.34-.21c-.09-.09-.17-.2-.22-.32-.06-.13-.08-.26-.08-.42s.03-.29,.08-.42c.06-.13,.13-.23,.22-.32,.09-.09,.21-.16,.34-.21s.27-.07,.41-.07c.13,0,.26,.02,.37,.07,.11,.05,.21,.12,.29,.2,.08,.09,.14,.2,.19,.33,.04,.13,.07,.28,.07,.45v.13h-1.48Zm.99-.36c0-.15-.05-.26-.13-.34s-.21-.12-.36-.12c-.15,0-.26,.04-.35,.13-.08,.08-.14,.2-.16,.34h.99Z"/>
        <path class="cls-1" d="M56.53,84.43l-.67-.9h.59l.39,.58,.42-.58h.55l-.66,.9,.78,1.04h-.59l-.51-.7-.51,.7h-.57l.78-1.04Z"/>
        <path class="cls-1" d="M59.41,85.21h-.01c-.07,.11-.16,.19-.27,.24-.11,.05-.23,.07-.36,.07-.09,0-.18-.01-.26-.04-.08-.02-.16-.06-.23-.11-.07-.05-.12-.11-.16-.18-.04-.07-.06-.16-.06-.25,0-.1,.02-.19,.06-.27,.04-.07,.09-.14,.15-.19,.06-.05,.14-.09,.22-.12,.08-.03,.17-.05,.26-.07s.18-.02,.27-.03c.09,0,.18,0,.26,0h.12v-.05c0-.12-.04-.21-.13-.27-.08-.06-.19-.09-.32-.09-.1,0-.2,.02-.29,.05-.09,.04-.17,.09-.23,.15l-.25-.25c.11-.11,.23-.19,.38-.24,.14-.05,.29-.07,.45-.07,.14,0,.25,.02,.35,.05s.17,.07,.23,.12c.06,.05,.11,.1,.14,.17,.03,.06,.06,.13,.07,.19,.01,.06,.02,.13,.03,.19,0,.06,0,.11,0,.16v1.12h-.44v-.27Zm-.03-.6h-.1c-.07,0-.14,0-.23,0-.08,0-.16,.02-.24,.04-.07,.02-.14,.05-.19,.09-.05,.04-.08,.09-.08,.16,0,.05,.01,.08,.03,.12s.05,.06,.08,.08,.07,.04,.11,.05c.04,0,.08,.01,.12,.01,.17,0,.29-.04,.37-.12,.08-.08,.12-.19,.12-.33v-.11Z"/>
        <path class="cls-1" d="M60.37,83.53h.46v.31h0c.05-.1,.12-.18,.21-.25,.09-.07,.22-.11,.38-.11,.13,0,.24,.02,.33,.06s.16,.1,.22,.17c.06,.07,.1,.15,.12,.24s.04,.19,.04,.29v1.23h-.49v-.98c0-.05,0-.11,0-.18,0-.07-.02-.13-.04-.19-.02-.06-.06-.11-.11-.15-.05-.04-.11-.06-.2-.06s-.15,.01-.2,.04c-.06,.03-.1,.06-.14,.11-.04,.05-.06,.1-.08,.16s-.02,.12-.02,.19v1.06h-.49v-1.94Z"/>
        <path class="cls-1" d="M64.22,85.18h0c-.07,.12-.16,.21-.28,.26s-.25,.08-.38,.08c-.15,0-.29-.03-.4-.08-.12-.05-.22-.12-.3-.22-.08-.09-.15-.2-.19-.32s-.06-.26-.06-.4,.02-.28,.07-.4,.11-.23,.19-.32,.18-.16,.3-.22c.12-.05,.24-.08,.38-.08,.09,0,.17,0,.24,.03,.07,.02,.13,.04,.19,.07,.05,.03,.1,.06,.14,.1,.04,.03,.07,.07,.09,.1h.01v-1.36h.49v3.06h-.46v-.29Zm-1.15-.68c0,.08,.01,.15,.04,.22,.03,.07,.06,.13,.11,.19,.05,.05,.11,.1,.18,.13,.07,.03,.15,.05,.24,.05s.17-.02,.24-.05,.13-.08,.18-.13,.09-.12,.11-.19,.04-.14,.04-.22-.01-.15-.04-.22-.06-.13-.11-.19-.11-.1-.18-.13-.15-.05-.24-.05-.17,.02-.24,.05c-.07,.03-.13,.08-.18,.13-.05,.05-.09,.12-.11,.19-.03,.07-.04,.14-.04,.22Z"/>
        <path class="cls-1" d="M65.24,83.53h.49v.31h0c.05-.11,.13-.2,.23-.26,.1-.06,.21-.09,.34-.09,.03,0,.06,0,.09,0,.03,0,.06,.01,.09,.02v.47s-.08-.02-.12-.03c-.04,0-.08-.01-.12-.01-.11,0-.2,.02-.27,.06s-.12,.09-.16,.14c-.04,.05-.06,.11-.07,.16s-.02,.09-.02,.12v1.04h-.49v-1.94Z"/>
        <path class="cls-1" d="M66.75,82.87c0-.08,.03-.15,.09-.2,.06-.06,.13-.09,.22-.09s.16,.03,.22,.08,.09,.12,.09,.21-.03,.15-.09,.21c-.06,.06-.14,.08-.22,.08s-.16-.03-.22-.09c-.06-.06-.09-.13-.09-.2Zm.07,.66h.49v1.94h-.49v-1.94Z"/>
        <path class="cls-1" d="M69.07,85.21h-.01c-.07,.11-.16,.19-.27,.24-.11,.05-.23,.07-.36,.07-.09,0-.18-.01-.26-.04-.08-.02-.16-.06-.23-.11-.07-.05-.12-.11-.16-.18-.04-.07-.06-.16-.06-.25,0-.1,.02-.19,.06-.27,.04-.07,.09-.14,.15-.19,.06-.05,.14-.09,.22-.12,.08-.03,.17-.05,.26-.07s.18-.02,.27-.03c.09,0,.18,0,.26,0h.12v-.05c0-.12-.04-.21-.13-.27-.08-.06-.19-.09-.32-.09-.1,0-.2,.02-.29,.05-.09,.04-.17,.09-.23,.15l-.25-.25c.11-.11,.23-.19,.38-.24,.14-.05,.29-.07,.45-.07,.14,0,.25,.02,.35,.05s.17,.07,.23,.12c.06,.05,.11,.1,.14,.17,.03,.06,.06,.13,.07,.19,.01,.06,.02,.13,.03,.19,0,.06,0,.11,0,.16v1.12h-.44v-.27Zm-.03-.6h-.1c-.07,0-.14,0-.23,0-.08,0-.16,.02-.24,.04-.07,.02-.14,.05-.19,.09-.05,.04-.08,.09-.08,.16,0,.05,.01,.08,.03,.12s.05,.06,.08,.08,.07,.04,.11,.05c.04,0,.08,.01,.12,.01,.17,0,.29-.04,.37-.12,.08-.08,.12-.19,.12-.33v-.11Z"/>
        <path class="cls-1" d="M72.81,85.47h-.46v-.31h0c-.05,.1-.12,.18-.21,.25-.09,.07-.22,.11-.38,.11-.13,0-.24-.02-.33-.06-.09-.04-.16-.1-.22-.17-.06-.07-.1-.15-.12-.24s-.04-.19-.04-.29v-1.23h.49v.98c0,.05,0,.11,0,.18s.02,.13,.04,.19c.02,.06,.06,.11,.11,.15,.05,.04,.11,.06,.2,.06,.08,0,.15-.01,.2-.04s.1-.06,.14-.11c.04-.05,.06-.1,.08-.16s.02-.12,.02-.19v-1.06h.49v1.94Z"/>
        <path class="cls-1" d="M73.36,83.53h.46v.31h0c.05-.1,.12-.18,.21-.25,.09-.07,.22-.11,.38-.11,.13,0,.24,.02,.33,.06s.16,.1,.22,.17c.06,.07,.1,.15,.12,.24s.04,.19,.04,.29v1.23h-.49v-.98c0-.05,0-.11,0-.18,0-.07-.02-.13-.04-.19-.02-.06-.06-.11-.11-.15-.05-.04-.11-.06-.2-.06s-.15,.01-.2,.04c-.06,.03-.1,.06-.14,.11-.04,.05-.06,.1-.08,.16s-.02,.12-.02,.19v1.06h-.49v-1.94Z"/>
        <path class="cls-1" d="M75.62,82.87c0-.08,.03-.15,.09-.2,.06-.06,.13-.09,.22-.09s.16,.03,.22,.08,.09,.12,.09,.21-.03,.15-.09,.21c-.06,.06-.14,.08-.22,.08s-.16-.03-.22-.09c-.06-.06-.09-.13-.09-.2Zm.07,.66h.49v1.94h-.49v-1.94Z"/>
        <path class="cls-1" d="M76.47,83.53h.53l.52,1.36h0l.52-1.36h.5l-.76,1.94h-.52l-.79-1.94Z"/>
        <path class="cls-1" d="M79.22,84.67c.02,.15,.07,.26,.17,.34,.1,.08,.21,.12,.35,.12,.12,0,.22-.02,.31-.07,.08-.05,.15-.11,.22-.19l.35,.26c-.11,.14-.24,.24-.38,.3-.14,.06-.29,.09-.44,.09-.15,0-.28-.02-.41-.07s-.24-.12-.34-.21c-.09-.09-.17-.2-.22-.32-.06-.13-.08-.26-.08-.42s.03-.29,.08-.42c.06-.13,.13-.23,.22-.32,.09-.09,.21-.16,.34-.21s.27-.07,.41-.07c.13,0,.26,.02,.37,.07,.11,.05,.21,.12,.29,.2,.08,.09,.14,.2,.19,.33,.04,.13,.07,.28,.07,.45v.13h-1.48Zm.99-.36c0-.15-.05-.26-.13-.34s-.21-.12-.36-.12c-.15,0-.26,.04-.35,.13-.08,.08-.14,.2-.16,.34h.99Z"/>
        <path class="cls-1" d="M81.15,83.53h.49v.31h0c.05-.11,.13-.2,.23-.26,.1-.06,.21-.09,.34-.09,.03,0,.06,0,.09,0,.03,0,.06,.01,.09,.02v.47s-.08-.02-.12-.03c-.04,0-.08-.01-.12-.01-.11,0-.2,.02-.27,.06s-.12,.09-.16,.14c-.04,.05-.06,.11-.07,.16s-.02,.09-.02,.12v1.04h-.49v-1.94Z"/>
        <path class="cls-1" d="M83.76,84.07c-.09-.13-.22-.2-.38-.2-.06,0-.13,.02-.19,.05s-.09,.08-.09,.16c0,.06,.03,.1,.08,.13s.12,.05,.19,.07c.08,.02,.16,.04,.25,.06,.09,.02,.17,.05,.25,.09,.08,.04,.14,.1,.19,.17,.05,.07,.08,.17,.08,.3,0,.12-.02,.21-.07,.29-.05,.08-.11,.14-.19,.19-.08,.05-.17,.08-.27,.11-.1,.02-.2,.03-.3,.03-.15,0-.29-.02-.42-.06-.13-.04-.24-.12-.34-.23l.32-.3c.06,.07,.13,.13,.2,.17,.07,.04,.16,.07,.26,.07,.03,0,.07,0,.11-.01,.04,0,.07-.02,.11-.04,.03-.02,.06-.04,.08-.07s.03-.06,.03-.1c0-.07-.03-.12-.08-.15s-.12-.06-.19-.08c-.08-.02-.16-.04-.25-.06-.09-.02-.17-.05-.25-.08-.08-.04-.14-.09-.19-.16s-.08-.17-.08-.29c0-.11,.02-.2,.07-.28s.1-.14,.18-.2c.07-.05,.16-.09,.25-.11,.09-.02,.19-.04,.29-.04,.13,0,.26,.02,.38,.07,.13,.04,.23,.12,.31,.23l-.32,.29Z"/>
        <path class="cls-1" d="M84.46,82.87c0-.08,.03-.15,.09-.2,.06-.06,.13-.09,.22-.09s.16,.03,.22,.08,.09,.12,.09,.21-.03,.15-.09,.21c-.06,.06-.14,.08-.22,.08s-.16-.03-.22-.09c-.06-.06-.09-.13-.09-.2Zm.07,.66h.49v1.94h-.49v-1.94Z"/>
        <path class="cls-1" d="M85.34,83.94v-.41h.4v-.56h.49v.56h.53v.41h-.53v.85c0,.1,.02,.17,.05,.23,.04,.06,.11,.08,.22,.08,.04,0,.09,0,.14-.01,.05,0,.09-.02,.12-.05v.41c-.05,.02-.11,.04-.19,.05-.07,0-.14,.01-.2,.01-.13,0-.24-.01-.32-.04-.08-.03-.15-.07-.19-.13-.05-.06-.08-.13-.1-.22s-.03-.19-.03-.3v-.89h-.4Z"/>
        <path class="cls-1" d="M86.88,83.53h.53l.54,1.35h0l.49-1.35h.51l-.92,2.36c-.04,.09-.07,.17-.12,.24-.04,.07-.09,.13-.15,.17-.06,.05-.12,.08-.2,.1s-.17,.03-.28,.03c-.13,0-.25-.02-.37-.05l.06-.44s.08,.02,.12,.03c.04,0,.08,.01,.13,.01,.06,0,.11,0,.15-.02s.07-.03,.1-.05c.03-.02,.05-.05,.07-.09s.04-.08,.06-.13l.09-.23-.83-1.96Z"/>
      </g>
      <g>
        <rect class="cls-1" x="45.09" y="45.21" width="1.48" height="3.57"/>
        <path class="cls-1" d="M40.88,41.34l-3.74,29.83h6.19v-8.52h4.98v8.52h6.19l-3.72-29.83h-9.92Zm6.23,18.21h-2.56v-4.65h2.56v4.65Zm0-5.12h-2.56v-4.65h2.56v4.65Zm0-5.12h-2.56v-4.65h2.56v4.65Z"/>
        <rect class="cls-1" x="45.09" y="50.33" width="1.48" height="3.57"/>
        <rect class="cls-1" x="45.09" y="23.86" width="1.48" height="1.62"/>
        <polygon class="cls-1" points="48.39 4.1 45.82 3 43.27 4.1 43.27 5.74 48.39 5.74 48.39 4.1"/>
        <polygon class="cls-1" points="45.39 8.19 44.93 11.67 46.74 11.67 46.27 8.19 45.39 8.19"/>
        <rect class="cls-1" x="45.09" y="20.49" width="1.48" height="1.62"/>
        <rect class="cls-1" x="43.88" y="63.19" width="3.91" height="7.98"/>
        <polygon class="cls-1" points="41.96 17.66 49.7 17.66 49.7 27.9 51.42 27.9 51.42 15.98 49.67 15.98 41.99 15.98 40.25 15.98 40.25 27.9 41.96 27.9 41.96 17.66"/>
        <path class="cls-1" d="M47.48,6.31h-3.29l-.75,6.97h4.79l-.75-6.97Zm-3.17,5.89l.61-4.56h1.82l.61,4.56h-3.04Z"/>
        <polygon class="cls-1" points="49.13 13.82 48.83 13.82 42.84 13.82 42.53 13.82 42.53 15.44 49.13 15.44 49.13 13.82"/>
        <rect class="cls-1" x="45.09" y="55.44" width="1.48" height="3.57"/>
        <polygon class="cls-1" points="8.19 63.39 7.08 71.17 11.17 71.17 10 63.39 8.19 63.39"/>
        <polygon class="cls-1" points="5.63 60.39 4.35 71.17 6.54 71.17 7.72 62.85 10.46 62.85 11.72 71.17 14.1 71.17 12.5 60.39 5.63 60.39"/>
        <rect class="cls-1" x="15.87" y="64.74" width="1.48" height="1.62"/>
        <rect class="cls-1" x="29.33" y="64.74" width="1.48" height="1.62"/>
        <path class="cls-1" d="M27.99,71.17h3.6l1.04-7.85h-4.64v7.85Zm.81-6.97h2.56v2.69h-2.56v-2.69Z"/>
        <polygon class="cls-1" points="40.41 40.8 51.28 40.8 51.31 41.04 55.06 71.17 59.53 71.17 54.82 36.12 36.78 36.12 33.24 62.78 33.24 62.78 32.17 71.17 36.6 71.17 40.41 40.8"/>
        <rect class="cls-1" x="24.75" y="64.74" width="1.48" height="1.62"/>
        <path class="cls-1" d="M23.54,71.17h3.91v-7.85h-3.91v7.85Zm.67-6.97h2.56v2.69h-2.56v-2.69Z"/>
        <path class="cls-1" d="M19.1,71.17h3.91v-7.85h-3.91v7.85Zm.67-6.97h2.56v2.69h-2.56v-2.69Z"/>
        <path class="cls-1" d="M14.72,71.17h3.84v-7.85h-5.04l1.2,7.85Zm.61-6.97h2.56v2.69h-2.56v-2.69Z"/>
        <rect class="cls-1" x="20.31" y="64.74" width="1.48" height="1.62"/>
        <polygon class="cls-1" points="12.86 59.75 13.78 59.2 13.78 58 4.28 58 4.28 59.19 5.26 59.75 12.86 59.75"/>
        <rect class="cls-1" x="69.91" y="64.74" width="1.48" height="1.62"/>
        <path class="cls-1" d="M64.25,71.17h3.91v-7.85h-3.91v7.85Zm.67-6.97h2.56v2.69h-2.56v-2.69Z"/>
        <path class="cls-1" d="M68.7,71.17h3.91v-7.85h-3.91v7.85Zm.67-6.97h2.56v2.69h-2.56v-2.69Z"/>
        <path class="cls-1" d="M60.08,71.17h3.64v-7.85h-4.64l1.01,7.85Zm.27-6.97h2.56v2.69h-2.56v-2.69Z"/>
        <rect class="cls-1" x="65.47" y="64.74" width="1.48" height="1.62"/>
        <polygon class="cls-1" points="81.71 63.39 80.53 71.17 84.62 71.17 83.51 63.39 81.71 63.39"/>
        <path class="cls-1" d="M73.14,63.32v7.85h3.84l1.2-7.85h-5.04Zm3.23,3.57h-2.56v-2.69h2.56v2.69Z"/>
        <polygon class="cls-1" points="79.2 60.39 77.6 71.17 79.98 71.17 81.24 62.85 83.98 62.85 85.16 71.17 87.35 71.17 86.07 60.39 79.2 60.39"/>
        <polygon class="cls-1" points="86.44 59.75 87.42 59.19 87.42 58 77.92 58 77.92 59.2 78.84 59.75 86.44 59.75"/>
        <rect class="cls-1" x="74.36" y="64.74" width="1.48" height="1.62"/>
        <polygon class="cls-1" points="57.08 33.35 57.08 31.2 34.59 31.2 34.59 33.35 34.66 33.35 57.01 33.35 57.08 33.35"/>
        <rect class="cls-1" x="60.89" y="64.74" width="1.48" height="1.62"/>
        <polygon class="cls-1" points="34.96 33.89 36.65 35.58 55.08 35.58 56.71 33.89 34.96 33.89"/>
        <polygon class="cls-1" points="51.77 28.91 39.85 28.91 37.89 30.59 53.77 30.59 51.77 28.91"/>
        <path class="cls-1" d="M49.16,27.9v-9.7h-6.66v9.7h6.66Zm-4.61-7.95h2.56v2.69h-2.56v-2.69Zm0,3.37h2.56v2.69h-2.56v-2.69Z"/>
      </g>
    </g>
  </g>
</svg>